<svg xmlns="http://www.w3.org/2000/svg" width="96.176" height="108.333" viewBox="0 0 96.176 108.333">
  <g id="contract_1_" data-name="contract (1)" transform="translate(-28.73)">
    <g id="Сгруппировать_61" data-name="Сгруппировать 61" transform="translate(28.73 0)">
      <path id="Контур_88" data-name="Контур 88" d="M135.706,137.8H83.827a1.594,1.594,0,0,0,0,3.187h51.879a1.594,1.594,0,1,0,0-3.187Z" transform="translate(-70.912 -108.646)" fill="#00549f"/>
      <path id="Контур_89" data-name="Контур 89" d="M83.827,88.744h25.939a1.594,1.594,0,1,0,0-3.187H83.827a1.594,1.594,0,0,0,0,3.187Z" transform="translate(-70.912 -67.454)" fill="#00549f"/>
      <path id="Контур_90" data-name="Контур 90" d="M135.706,184.1H83.827a1.594,1.594,0,1,0,0,3.187h51.879a1.594,1.594,0,1,0,0-3.187Z" transform="translate(-70.912 -145.143)" fill="#00549f"/>
      <path id="Контур_91" data-name="Контур 91" d="M53.462,97.261h-16.6a4.948,4.948,0,0,1-4.942-4.942V8.129a4.948,4.948,0,0,1,4.942-4.942H84.69a3.41,3.41,0,0,1,.457.034v9.939a8.139,8.139,0,0,0,8.129,8.129h9.939a3.381,3.381,0,0,1,.034.457V48.886a1.594,1.594,0,0,0,3.187,0V21.748a6.5,6.5,0,0,0-1.917-4.628l-15.2-15.2A6.5,6.5,0,0,0,84.69,0H36.859A8.139,8.139,0,0,0,28.73,8.129V92.318a8.139,8.139,0,0,0,8.129,8.129h16.6a1.594,1.594,0,1,0,0-3.187ZM101,18.1h-7.72a4.948,4.948,0,0,1-4.942-4.942V5.441Z" transform="translate(-28.73 0)" fill="#00549f"/>
      <path id="Контур_92" data-name="Контур 92" d="M170.59,277.41l-13.5-22.792a3.493,3.493,0,0,0-4.788-1.226l-3.285,1.946a6.24,6.24,0,0,0-2.752,7.275,4.886,4.886,0,0,1-3.437-.037c-2.593-.816-4.565-2.457-7.821-1.634-5.529,1.408-5.361,1.337-5.861,1.509-3.237-1.843-5.183-2.392-8.62-1.062l-3.063,1.184a4.9,4.9,0,0,1-4.292-.358l-.836-.493a6.226,6.226,0,0,0-2.971-6.383h0l-3.284-1.946a3.5,3.5,0,0,0-4.788,1.226l-13.5,22.793A3.493,3.493,0,0,0,89.01,282.2l3.284,1.946a6.191,6.191,0,0,0,3.165.869,6.273,6.273,0,0,0,3.4-1.005l.684.4L98.1,286.424a5.339,5.339,0,0,0,5.17,8.391,5.335,5.335,0,0,0,6.093,4.377,5.341,5.341,0,0,0,7.372,4.008,5.338,5.338,0,0,0,9.079,1.5l3.84,2.275a5.351,5.351,0,0,0,8.034-3.961l.009.005a5.344,5.344,0,0,0,8.054-4.2,5.345,5.345,0,0,0,6.621-4.622,5.347,5.347,0,0,0,6.042-8.418l2.117-1.237a6.216,6.216,0,0,0,5.547-.4l3.284-1.946a3.492,3.492,0,0,0,1.226-4.788ZM93.919,281.4l-3.284-1.946a.308.308,0,0,1-.108-.422l13.5-22.793a.308.308,0,0,1,.422-.108l3.284,1.946a3.043,3.043,0,0,1,1.067,4.169L98.089,280.335A3.046,3.046,0,0,1,93.919,281.4Zm7.267,9.89a2.155,2.155,0,0,1-.494-3.009l2.124-2.959a2.156,2.156,0,0,1,3.5,2.515L104.2,290.8A2.159,2.159,0,0,1,101.186,291.292Zm6.093,4.374a2.159,2.159,0,0,1-.494-3.009l2.124-2.959h0l2.344-3.265a2.142,2.142,0,0,1,1.4-.87,2.174,2.174,0,0,1,.354-.029,2.157,2.157,0,0,1,1.747,3.414l-4.469,6.225A2.155,2.155,0,0,1,107.279,295.666Zm6.093,4.374a2.159,2.159,0,0,1-.5-3.008h0l4.469-6.224a2.156,2.156,0,1,1,3.5,2.515l-1.985,2.766h0l-2.483,3.459A2.158,2.158,0,0,1,113.372,300.04Zm7.089,2.985a2.159,2.159,0,0,1-.5-3.008l1.487-2.071a2.156,2.156,0,1,1,3.5,2.515l-1.486,2.07A2.158,2.158,0,0,1,120.461,303.025Zm35.72-12.706a2.16,2.16,0,0,1-2.955.757l-14.107-8.357a1.594,1.594,0,1,0-1.625,2.742l10.665,6.318h0a2.158,2.158,0,0,1-2.2,3.713l-10.67-6.322a1.594,1.594,0,1,0-1.625,2.742l7.858,4.655h0a2.158,2.158,0,0,1-2.2,3.711l-4.217-2.5h0l-3.078-1.823A1.594,1.594,0,1,0,130.4,298.7l3.078,1.824h0a2.157,2.157,0,1,1-2.2,3.712l-3.591-2.127a5.341,5.341,0,0,0-3.589-8.169,5.339,5.339,0,0,0-5.83-7.149,5.343,5.343,0,0,0-9.065-2.856,5.338,5.338,0,0,0-7.43-1.906l-.73-.431,10.023-16.918.477.281a8.069,8.069,0,0,0,7.062.587l3.063-1.184a4.7,4.7,0,0,1,4.454.1,7.134,7.134,0,0,0-1.808,4.752v7.066a3.409,3.409,0,0,0,3.4,3.406h0a7.058,7.058,0,0,0,6.672-4.77l21.029,12.453a2.156,2.156,0,0,1,.756,2.955Zm11.559-10.863-3.285,1.946a3.047,3.047,0,0,1-4.169-1.067l-5.022-8.477a1.594,1.594,0,1,0-2.742,1.624l5.022,8.478c.095.16.2.311.3.459l-1.4.816a8.08,8.08,0,0,0-.813.551l-21.65-12.821a1.6,1.6,0,0,0-2.406,1.371,4.07,4.07,0,0,1-1.131,3.028,3.834,3.834,0,0,1-2.728,1.129h0a.218.218,0,0,1-.216-.219v-7.066a3.965,3.965,0,0,1,2.987-3.838l5.293-1.34c1.921-.485,3.006.54,5.882,1.514a8.056,8.056,0,0,0,6.094-.1l.962,1.624a1.594,1.594,0,1,0,2.742-1.624l-1.895-3.2a3.042,3.042,0,0,1,1.067-4.169l3.284-1.946a.308.308,0,0,1,.422.108l13.5,22.793a.307.307,0,0,1-.108.422Z" transform="translate(-74.904 -199.391)" fill="#00549f"/>
    </g>
  </g>
</svg>
