<svg xmlns="http://www.w3.org/2000/svg" width="63" height="56.614" viewBox="0 0 63 56.614">
  <g id="Сгруппировать_75" data-name="Сгруппировать 75" transform="translate(-739 -1626)">
    <g id="Сгруппировать_74" data-name="Сгруппировать 74" transform="translate(739 1626)">
      <path id="Контур_143" data-name="Контур 143" d="M202.751,359.849c-7.884,0-14.3-6.016-14.3-13.413a13,13,0,0,1,5.462-10.536,14.847,14.847,0,0,1,8.834-2.875c7.884,0,14.3,6.016,14.3,13.411a13.591,13.591,0,0,1-10.4,12.9,14.763,14.763,0,0,1-3.9.513m0-24.826a12.643,12.643,0,0,0-7.516,2.444,11.063,11.063,0,0,0-4.651,8.969c0,6.3,5.458,11.415,12.166,11.415a12.356,12.356,0,0,0,3.31-.437l.012,0a11.564,11.564,0,0,0,8.846-10.976c0-6.294-5.458-11.413-12.168-11.413" transform="translate(-154.05 -303.235)" fill="#0099db"/>
      <path id="Контур_144" data-name="Контур 144" d="M192.245,347.537c-8.613,0-15.621-6.573-15.621-14.655s7.008-14.653,15.621-14.653,15.623,6.571,15.623,14.653-7.01,14.655-15.623,14.655m0-27.308c-7.439,0-13.491,5.673-13.491,12.654s6.052,12.654,13.491,12.654,13.491-5.673,13.491-12.654-6.052-12.654-13.491-12.654" transform="translate(-166.038 -318.229)" fill="#0099db"/>
      <path id="Контур_145" data-name="Контур 145" d="M196.044,336.6a25.514,25.514,0,0,0-11.661-2.807v-2a27.748,27.748,0,0,1,12.69,3.054Z" transform="translate(-158.176 -304.485)" fill="#0099db"/>
      <path id="Контур_146" data-name="Контур 146" d="M173.5,360.1h-2.13v-3.725a23.673,23.673,0,0,1,7.669-17.387,26.935,26.935,0,0,1,18.538-7.2v2a24.75,24.75,0,0,0-17.033,6.61,21.761,21.761,0,0,0-7.045,15.976Z" transform="translate(-171.366 -304.486)" fill="#0099db"/>
      <path id="Контур_147" data-name="Контур 147" d="M197.149,349.529l-5.233-4.417,1.427-1.49,3.586,3.03,8.116-9.132,1.633,1.28Z" transform="translate(-150.543 -298.681)" fill="#0099db"/>
    </g>
  </g>
</svg>
