<svg xmlns="http://www.w3.org/2000/svg" width="63.5" height="59.576" viewBox="0 0 63.5 59.576">
  <g id="Сгруппировать_72" data-name="Сгруппировать 72" transform="translate(-849.645 -1599.054)">
    <path id="Контур_124" data-name="Контур 124" d="M285.263,282.87a1.219,1.219,0,0,1-.867-.355,1.056,1.056,0,0,1,.075-1.556c7.28-6.257,11.287-14.545,11.287-23.348s-4.007-17.094-11.287-23.348a1.054,1.054,0,0,1-.075-1.554,1.233,1.233,0,0,1,1.658-.066c7.77,6.675,12.052,15.54,12.052,24.968s-4.282,18.3-12.052,24.97a1.21,1.21,0,0,1-.791.288" transform="translate(615.038 1366.7)" fill="#0099db"/>
    <path id="Контур_125" data-name="Контур 125" d="M282.994,271.36a1.207,1.207,0,0,1-.864-.357,1.052,1.052,0,0,1,.075-1.554,20.311,20.311,0,0,0,0-31.832,1.05,1.05,0,0,1-.075-1.551,1.225,1.225,0,0,1,1.656-.066,22.409,22.409,0,0,1,0,35.072,1.206,1.206,0,0,1-.791.288" transform="translate(612.279 1370.78)" fill="#0099db"/>
    <path id="Контур_126" data-name="Контур 126" d="M281.09,259.852a1.208,1.208,0,0,1-.867-.357,1.052,1.052,0,0,1,.075-1.554,10.828,10.828,0,0,0,0-16.972,1.052,1.052,0,0,1-.075-1.554,1.235,1.235,0,0,1,1.658-.069,12.931,12.931,0,0,1,0,20.217,1.21,1.21,0,0,1-.791.288" transform="translate(609.961 1374.856)" fill="#0099db"/>
    <path id="Контур_127" data-name="Контур 127" d="M274.606,282.871a1.21,1.21,0,0,1-.791-.288c-7.772-6.675-12.052-15.545-12.052-24.971s4.28-18.293,12.052-24.968a1.228,1.228,0,0,1,1.656.066,1.054,1.054,0,0,1-.073,1.554c-7.28,6.254-11.287,14.545-11.287,23.348S268.117,274.7,275.4,280.96a1.056,1.056,0,0,1,.073,1.556,1.214,1.214,0,0,1-.864.355" transform="translate(587.882 1366.7)" fill="#0099db"/>
    <path id="Контур_128" data-name="Контур 128" d="M274.9,271.36a1.2,1.2,0,0,1-.789-.288,22.4,22.4,0,0,1,0-35.072,1.22,1.22,0,0,1,1.656.066,1.05,1.05,0,0,1-.075,1.551,20.308,20.308,0,0,0,0,31.832,1.052,1.052,0,0,1,.075,1.554,1.208,1.208,0,0,1-.867.357" transform="translate(592.612 1370.779)" fill="#0099db"/>
    <path id="Контур_129" data-name="Контур 129" d="M274.835,259.853a1.21,1.21,0,0,1-.791-.288,12.934,12.934,0,0,1,0-20.217,1.23,1.23,0,0,1,1.658.069,1.054,1.054,0,0,1-.075,1.554,10.832,10.832,0,0,0,0,16.972,1.054,1.054,0,0,1,.075,1.554,1.212,1.212,0,0,1-.867.357" transform="translate(596.901 1374.855)" fill="#0099db"/>
    <path id="Контур_130" data-name="Контур 130" d="M276.731,277.015a1.138,1.138,0,0,1-1.172-1.1v-30.2a1.175,1.175,0,0,1,2.345,0v30.2a1.138,1.138,0,0,1-1.172,1.1" transform="translate(604.661 1381.615)" fill="#0099db"/>
    <path id="Контур_131" data-name="Контур 131" d="M278.5,250.133a4.128,4.128,0,1,1,4.39-4.12,4.264,4.264,0,0,1-4.39,4.12m0-6.039a1.923,1.923,0,1,0,2.048,1.919,1.986,1.986,0,0,0-2.048-1.919" transform="translate(602.896 1378.301)" fill="#0099db"/>
  </g>
</svg>
