<svg xmlns="http://www.w3.org/2000/svg" width="63" height="59.098" viewBox="0 0 63 59.098">
  <g id="Сгруппировать_71" data-name="Сгруппировать 71" transform="translate(-712.334 -1553.111)">
    <path id="Контур_117" data-name="Контур 117" d="M137.1,277.177H92.258a3.694,3.694,0,0,1-3.806-3.564V248.865a3.7,3.7,0,0,1,3.806-3.566H137.1a3.694,3.694,0,0,1,3.8,3.566v2.722h-2.326v-2.722a1.431,1.431,0,0,0-1.475-1.383H92.258a1.43,1.43,0,0,0-1.475,1.383v24.749A1.431,1.431,0,0,0,92.258,275H137.1Z" transform="translate(623.882 1335.032)" fill="#0099db"/>
    <path id="Контур_118" data-name="Контур 118" d="M128.672,262.319H92.052V250.095c0-9.471,8.214-17.177,18.311-17.177s18.309,7.706,18.309,17.177Zm-34.294-2.181h31.968V250.095c0-8.269-7.169-15-15.983-15s-15.985,6.727-15.985,15Z" transform="translate(628.196 1320.193)" fill="#0099db"/>
    <path id="Контур_119" data-name="Контур 119" d="M116.442,258.272H95.651V246.156a10.41,10.41,0,0,1,20.791,0Zm-18.463-2.181h16.139v-9.935a8.08,8.08,0,0,0-16.139,0Z" transform="translate(632.51 1324.24)" fill="#0099db"/>
    <path id="Контур_120" data-name="Контур 120" d="M103.171,258.281a4.812,4.812,0,1,1,5.12-4.8,4.975,4.975,0,0,1-5.12,4.8m0-7.422a2.626,2.626,0,1,0,2.794,2.621,2.716,2.716,0,0,0-2.794-2.621" transform="translate(635.386 1339.079)" fill="#0099db"/>
    <path id="Контур_121" data-name="Контур 121" d="M108.686,262.418H97.935l2.344-11,1.453.937a3,3,0,0,0,3.157,0l1.453-.937Zm-7.915-2.181h5.081l-1.159-5.419a5.458,5.458,0,0,1-2.766,0Z" transform="translate(635.247 1342.367)" fill="#0099db"/>
    <path id="Контур_122" data-name="Контур 122" d="M118.4,274.478c-7.915,0-14.354-6.039-14.354-13.464s6.439-13.464,14.354-13.464,14.352,6.039,14.352,13.464-6.439,13.464-14.352,13.464m0-24.746c-6.635,0-12.026,5.061-12.026,11.283S111.77,272.3,118.4,272.3s12.028-5.061,12.028-11.283-5.4-11.283-12.028-11.283" transform="translate(642.577 1337.731)" fill="#0099db"/>
    <path id="Контур_123" data-name="Контур 123" d="M112.7,263.287l-6.1-5.72,1.644-1.543L112.7,260.2l9.731-9.13,1.644,1.543Z" transform="translate(645.639 1341.951)" fill="#0099db"/>
  </g>
</svg>
