<svg xmlns="http://www.w3.org/2000/svg" width="62.489" height="52" viewBox="0 0 62.489 52">
  <g id="Сгруппировать_73" data-name="Сгруппировать 73" transform="translate(-654 -1619.417)">
    <path id="Контур_132" data-name="Контур 132" d="M105.524,344.318a8.388,8.388,0,1,1,8.924-8.37,8.668,8.668,0,0,1-8.924,8.37m0-14.966a6.61,6.61,0,1,0,7.033,6.6,6.831,6.831,0,0,0-7.033-6.6" transform="translate(579.72 1309.47)" fill="#0099db"/>
    <path id="Контур_133" data-name="Контур 133" d="M111.149,350.861a4.619,4.619,0,1,1,4.914-4.61,4.775,4.775,0,0,1-4.914,4.61m0-7.446a2.842,2.842,0,1,0,3.022,2.836,2.937,2.937,0,0,0-3.022-2.836" transform="translate(587.311 1320.556)" fill="#0099db"/>
    <path id="Контур_134" data-name="Контур 134" d="M118.483,338.9a4.619,4.619,0,1,1,4.916-4.61,4.776,4.776,0,0,1-4.916,4.61m0-7.446a2.842,2.842,0,1,0,3.02,2.836,2.936,2.936,0,0,0-3.02-2.836" transform="translate(593.09 1311.128)" fill="#0099db"/>
    <path id="Контур_135" data-name="Контур 135" d="M111.149,326.938a4.62,4.62,0,1,1,4.914-4.61,4.775,4.775,0,0,1-4.914,4.61m0-7.447a2.842,2.842,0,1,0,3.022,2.838,2.939,2.939,0,0,0-3.022-2.838" transform="translate(587.311 1301.7)" fill="#0099db"/>
    <path id="Контур_136" data-name="Контур 136" d="M96.487,326.938a4.62,4.62,0,1,1,4.914-4.61,4.775,4.775,0,0,1-4.914,4.61m0-7.447a2.842,2.842,0,1,0,3.022,2.838,2.939,2.939,0,0,0-3.022-2.838" transform="translate(575.756 1301.7)" fill="#0099db"/>
    <path id="Контур_137" data-name="Контур 137" d="M89.035,338.9a4.619,4.619,0,1,1,4.914-4.61,4.776,4.776,0,0,1-4.914,4.61m0-7.446a2.842,2.842,0,1,0,3.022,2.836,2.936,2.936,0,0,0-3.022-2.836" transform="translate(569.882 1311.128)" fill="#0099db"/>
    <path id="Контур_138" data-name="Контур 138" d="M96.487,350.861a4.619,4.619,0,1,1,4.914-4.61,4.775,4.775,0,0,1-4.914,4.61m0-7.446a2.842,2.842,0,1,0,3.022,2.836,2.937,2.937,0,0,0-3.022-2.836" transform="translate(575.756 1320.556)" fill="#0099db"/>
    <rect id="Прямоугольник_160" data-name="Прямоугольник 160" width="9.545" height="1.774" transform="translate(695.293 1644.531)" fill="#0099db"/>
    <rect id="Прямоугольник_161" data-name="Прямоугольник 161" width="9.545" height="1.774" transform="translate(665.163 1644.513)" fill="#0099db"/>
    <path id="Контур_139" data-name="Контур 139" d="M108.725,345.29l-4.824-7.728,1.634-.9,4.823,7.728Z" transform="translate(585.473 1316.632)" fill="#0099db"/>
    <path id="Контур_140" data-name="Контур 140" d="M100.219,331.643,95.4,323.916l1.631-.9,4.823,7.728Z" transform="translate(578.772 1305.877)" fill="#0099db"/>
    <path id="Контур_141" data-name="Контур 141" d="M96.864,345.188l-1.618-.921,4.95-7.657,1.62.919Z" transform="translate(578.652 1316.59)" fill="#0099db"/>
    <path id="Контур_142" data-name="Контур 142" d="M105.61,331.675l-1.62-.919,4.95-7.658,1.62.921Z" transform="translate(585.543 1305.94)" fill="#0099db"/>
  </g>
</svg>
