<svg xmlns="http://www.w3.org/2000/svg" width="79" height="24.243" viewBox="0 0 79 24.243">
  <g id="Сгруппировать_76" data-name="Сгруппировать 76" transform="translate(-260.303 -328.051)">
    <path id="Контур_148" data-name="Контур 148" d="M262.309,350a8.175,8.175,0,0,1-2.006-5.585h3.3a7.386,7.386,0,0,0,.912,3.323q1.23,1.859,4.44,1.859a6.052,6.052,0,0,0,4-1.254,3.988,3.988,0,0,0,1.51-3.219,3.68,3.68,0,0,0-1.589-3.412,8.492,8.492,0,0,0-4.411-.969l-.641.007c-.215.007-.436.017-.656.026v-2.617c.323.034.6.053.822.065s.463.017.719.017a6.934,6.934,0,0,0,2.911-.528,3.32,3.32,0,0,0,2-3.292,3.145,3.145,0,0,0-1.331-2.715,5.181,5.181,0,0,0-3.106-.955c-2.1,0-3.564.661-4.367,1.975a6.521,6.521,0,0,0-.755,3.1h-3.123a8.43,8.43,0,0,1,1.121-4.476q1.928-3.3,6.791-3.294a9.644,9.644,0,0,1,5.947,1.6,5.5,5.5,0,0,1,2.105,4.65,4.978,4.978,0,0,1-1.247,3.523,5.208,5.208,0,0,1-2,1.317,5.493,5.493,0,0,1,3.1,1.965,5.718,5.718,0,0,1,1.114,3.564,7.036,7.036,0,0,1-2.368,5.5,9.727,9.727,0,0,1-6.716,2.122q-4.464,0-6.47-2.293" transform="translate(0 0)" fill="#0099db"/>
    <path id="Контур_149" data-name="Контур 149" d="M284.347,331.83a15.972,15.972,0,0,1,1.688,7.985,18.208,18.208,0,0,1-1.526,7.949,7.5,7.5,0,0,1-7.23,4.51,7.33,7.33,0,0,1-6.738-3.685,16.027,16.027,0,0,1-1.842-8.262,19.243,19.243,0,0,1,1.107-6.9q2.065-5.361,7.493-5.361,4.873,0,7.049,3.764m-3.176,15.7q1.458-2.04,1.457-7.6a17.75,17.75,0,0,0-1.051-6.612,4.017,4.017,0,0,0-4.1-2.59,4.306,4.306,0,0,0-4.085,2.462,16.037,16.037,0,0,0-1.29,7.252,16.77,16.77,0,0,0,.825,5.79q1.27,3.342,4.324,3.342a4.593,4.593,0,0,0,3.919-2.04" transform="translate(11.85 0.021)" fill="#0099db"/>
    <path id="Контур_150" data-name="Контур 150" d="M292.634,331.83a15.972,15.972,0,0,1,1.688,7.985,18.17,18.17,0,0,1-1.529,7.949,7.5,7.5,0,0,1-7.227,4.51,7.328,7.328,0,0,1-6.738-3.685,16.027,16.027,0,0,1-1.842-8.262,19.3,19.3,0,0,1,1.1-6.9q2.066-5.361,7.493-5.361,4.876,0,7.051,3.764m-3.176,15.7q1.458-2.04,1.456-7.6a17.7,17.7,0,0,0-1.054-6.612,4.016,4.016,0,0,0-4.095-2.59,4.3,4.3,0,0,0-4.085,2.462,16.033,16.033,0,0,0-1.293,7.252,16.762,16.762,0,0,0,.827,5.79q1.266,3.342,4.324,3.342a4.6,4.6,0,0,0,3.919-2.04" transform="translate(23.548 0.021)" fill="#0099db"/>
    <path id="Контур_151" data-name="Контур 151" d="M285.475,340.7v-2.764h7.649V330.7h3v7.227h7.647V340.7h-7.647V347.9h-3V340.7Z" transform="translate(35.532 3.746)" fill="#0099db"/>
  </g>
</svg>
