<svg xmlns="http://www.w3.org/2000/svg" width="63" height="56.309" viewBox="0 0 63 56.309">
  <path id="Контур_109" data-name="Контур 109" d="M226.485,290.078a8.449,8.449,0,1,1,8.988-8.432,8.734,8.734,0,0,1-8.988,8.432m0-14.719a6.3,6.3,0,1,0,6.7,6.286,6.511,6.511,0,0,0-6.7-6.286m-36.416,3.072c-9.7,0-17.6-7.407-17.6-16.51s7.9-16.5,17.6-16.5,17.6,7.4,17.6,16.5-7.9,16.51-17.6,16.51m0-30.867c-8.439,0-15.307,6.44-15.307,14.357s6.868,14.362,15.307,14.362,15.309-6.44,15.309-14.362-6.866-14.357-15.309-14.357m25.773,29.392a1.2,1.2,0,0,1-.573-.147l-7.829-4.24a1.034,1.034,0,0,1-.42-1.465,1.187,1.187,0,0,1,1.566-.394l7.829,4.24a1.041,1.041,0,0,1,.417,1.469,1.158,1.158,0,0,1-.991.537m-7.6-23.8a1.162,1.162,0,0,1-.993-.536,1.04,1.04,0,0,1,.42-1.467l8.155-4.417a1.194,1.194,0,0,1,1.566.394,1.039,1.039,0,0,1-.42,1.465l-8.16,4.417-.569.145m18.247-2.522a8.45,8.45,0,1,1,8.988-8.434,8.734,8.734,0,0,1-8.988,8.434m0-14.721a6.3,6.3,0,1,0,6.7,6.286,6.511,6.511,0,0,0-6.7-6.286" transform="translate(-172.474 -233.769)" fill="#0099db"/>
</svg>
