<svg xmlns="http://www.w3.org/2000/svg" width="102.333" height="102.333" viewBox="0 0 102.333 102.333">
  <g id="Calendar" transform="translate(-2 -2)">
    <path id="Контур_93" data-name="Контур 93" d="M95.806,12.233H87.278V8.822a6.822,6.822,0,1,0-13.644,0v3.411H59.989V8.822a6.822,6.822,0,0,0-13.644,0v3.411H32.7V8.822a6.822,6.822,0,1,0-13.644,0v3.411H10.528A8.528,8.528,0,0,0,2,20.761V88.983a8.528,8.528,0,0,0,8.528,8.528H58.283a1.706,1.706,0,0,0,0-3.411H10.528a5.132,5.132,0,0,1-5.117-5.117V36.111h95.511V65.106a1.706,1.706,0,0,0,3.411,0V20.761a8.528,8.528,0,0,0-8.528-8.528ZM77.044,8.822a3.411,3.411,0,1,1,6.822,0V19.056a3.411,3.411,0,1,1-6.822,0Zm-27.289,0a3.411,3.411,0,0,1,6.822,0V19.056a3.411,3.411,0,0,1-6.822,0Zm-27.289,0a3.411,3.411,0,1,1,6.822,0V19.056a3.411,3.411,0,1,1-6.822,0ZM100.922,32.7H5.411V20.761a5.132,5.132,0,0,1,5.117-5.117h8.528v3.411a6.822,6.822,0,1,0,13.644,0V15.644H46.344v3.411a6.822,6.822,0,1,0,13.644,0V15.644H73.633v3.411a6.822,6.822,0,1,0,13.644,0V15.644h8.528a5.132,5.132,0,0,1,5.117,5.117Z" transform="translate(0)" fill="#00549f"/>
    <path id="Контур_94" data-name="Контур 94" d="M35.644,30.411A3.411,3.411,0,0,0,32.233,27H25.411A3.411,3.411,0,0,0,22,30.411v5.117a3.411,3.411,0,0,0,3.411,3.411h6.822a3.411,3.411,0,0,0,3.411-3.411ZM25.411,35.528V30.411h6.822v5.117Z" transform="translate(14.111 17.639)" fill="#00549f"/>
    <path id="Контур_95" data-name="Контур 95" d="M23.644,30.411A3.411,3.411,0,0,0,20.233,27H13.411A3.411,3.411,0,0,0,10,30.411v5.117a3.411,3.411,0,0,0,3.411,3.411h6.822a3.411,3.411,0,0,0,3.411-3.411ZM13.411,35.528V30.411h6.822v5.117Z" transform="translate(5.644 17.639)" fill="#00549f"/>
    <path id="Контур_96" data-name="Контур 96" d="M56.233,38.939a3.411,3.411,0,0,0,3.411-3.411V30.411A3.411,3.411,0,0,0,56.233,27H49.411A3.411,3.411,0,0,0,46,30.411v5.117a3.411,3.411,0,0,0,3.411,3.411Zm-6.822-8.528h6.822v5.117H49.411Z" transform="translate(31.044 17.639)" fill="#00549f"/>
    <path id="Контур_97" data-name="Контур 97" d="M35.644,39.411A3.411,3.411,0,0,0,32.233,36H25.411A3.411,3.411,0,0,0,22,39.411v5.117a3.411,3.411,0,0,0,3.411,3.411h6.822a3.411,3.411,0,0,0,3.411-3.411ZM25.411,44.528V39.411h6.822v5.117Z" transform="translate(14.111 23.989)" fill="#00549f"/>
    <path id="Контур_98" data-name="Контур 98" d="M23.644,39.411A3.411,3.411,0,0,0,20.233,36H13.411A3.411,3.411,0,0,0,10,39.411v5.117a3.411,3.411,0,0,0,3.411,3.411h6.822a3.411,3.411,0,0,0,3.411-3.411ZM13.411,44.528V39.411h6.822v5.117Z" transform="translate(5.644 23.989)" fill="#00549f"/>
    <path id="Контур_99" data-name="Контур 99" d="M32.233,45H25.411A3.411,3.411,0,0,0,22,48.411v5.117a3.411,3.411,0,0,0,3.411,3.411h6.822a3.411,3.411,0,0,0,3.411-3.411V48.411A3.411,3.411,0,0,0,32.233,45Zm-6.822,8.528V48.411h6.822v5.117Z" transform="translate(14.111 30.339)" fill="#00549f"/>
    <path id="Контур_100" data-name="Контур 100" d="M37.411,38.939h6.822a3.411,3.411,0,0,0,3.411-3.411V30.411A3.411,3.411,0,0,0,44.233,27H37.411A3.411,3.411,0,0,0,34,30.411v5.117A3.411,3.411,0,0,0,37.411,38.939Zm0-8.528h6.822v5.117H37.411Z" transform="translate(22.578 17.639)" fill="#00549f"/>
    <path id="Контур_101" data-name="Контур 101" d="M34,44.528a3.411,3.411,0,0,0,3.411,3.411,1.706,1.706,0,0,0,0-3.411V39.411h6.822a1.706,1.706,0,0,0,0-3.411H37.411A3.411,3.411,0,0,0,34,39.411Z" transform="translate(22.578 23.989)" fill="#00549f"/>
    <path id="Контур_102" data-name="Контур 102" d="M20.233,45H13.411A3.411,3.411,0,0,0,10,48.411v5.117a3.411,3.411,0,0,0,3.411,3.411h6.822a3.411,3.411,0,0,0,3.411-3.411V48.411A3.411,3.411,0,0,0,20.233,45Zm-6.822,8.528V48.411h6.822v5.117Z" transform="translate(5.644 30.339)" fill="#00549f"/>
    <path id="Контур_103" data-name="Контур 103" d="M58.172,36A22.172,22.172,0,1,0,80.344,58.172,22.172,22.172,0,0,0,58.172,36Zm0,40.933A18.761,18.761,0,1,1,76.933,58.172,18.761,18.761,0,0,1,58.172,76.933Z" transform="translate(23.989 23.989)" fill="#00549f"/>
    <path id="Контур_104" data-name="Контур 104" d="M63.964,45.015,50.7,58.281,44.669,52.25a1.705,1.705,0,1,0-2.412,2.412L49.493,61.9a1.706,1.706,0,0,0,2.412,0L66.376,47.426a1.705,1.705,0,1,0-2.412-2.412Z" transform="translate(28.052 29.997)" fill="#00549f"/>
  </g>
</svg>
