<svg xmlns="http://www.w3.org/2000/svg" width="102" height="102" viewBox="0 0 102 102">
  <g id="winner" transform="translate(0.001)">
    <g id="Сгруппировать_62" data-name="Сгруппировать 62" transform="translate(-0.001 0)">
      <path id="Контур_105" data-name="Контур 105" d="M105.213,61.353a1.992,1.992,0,0,0-.934,3.873,35.859,35.859,0,1,1-16.872,0,1.992,1.992,0,1,0-.934-3.873,40.035,40.035,0,0,0-21.792,13.9A39.413,39.413,0,0,0,56,100.085a39.844,39.844,0,1,0,79.687,0,39.413,39.413,0,0,0-8.681-24.828A40.036,40.036,0,0,0,105.213,61.353Z" transform="translate(-44.844 -49.086)" fill="#00549f"/>
      <path id="Контур_106" data-name="Контур 106" d="M100.8,46.208,98.468,41.86l.389-5.376a10.169,10.169,0,0,0-3.681-9l-3.869-3.168L89.785,19.73a10.24,10.24,0,0,0-6.968-7.366l-4.775-1.443L74.384,6.694a10.2,10.2,0,0,0-8.762-3.543l-4.957.494L55.793,1.2a10.164,10.164,0,0,0-9.586,0l-4.348,2.33-5.375-.389a10.167,10.167,0,0,0-9,3.681l-3.168,3.869L19.73,12.214a10.24,10.24,0,0,0-7.366,6.968l-1.443,4.775L6.694,27.616a10.194,10.194,0,0,0-3.543,8.762l.494,4.957L1.2,46.206a10.164,10.164,0,0,0,0,9.586L3.531,60.14l-.389,5.376a10.17,10.17,0,0,0,3.681,9l3.869,3.168,1.522,4.584a10.239,10.239,0,0,0,6.968,7.366l4.775,1.443,3.657,4.228a10.193,10.193,0,0,0,8.762,3.543l4.956-.494,4.872,2.444a10.164,10.164,0,0,0,9.586,0l4.348-2.33,5.375.389a10.172,10.172,0,0,0,9-3.681l3.168-3.869,4.585-1.522a10.239,10.239,0,0,0,7.365-6.968l1.443-4.775,4.228-3.657a10.194,10.194,0,0,0,3.543-8.762l-.494-4.956,2.444-4.872a10.165,10.165,0,0,0,0-9.586Zm-3.525,7.727-.026.049L94.534,59.4a1.994,1.994,0,0,0-.2,1.091l.551,5.528a6.216,6.216,0,0,1-2.172,5.345l-4.677,4.047a1.991,1.991,0,0,0-.6.93l-1.61,5.328a6.244,6.244,0,0,1-4.55,4.262c-.059.014-.118.03-.175.049l-5.214,1.731a1.992,1.992,0,0,0-.914.629l-3.534,4.316a6.2,6.2,0,0,1-5.515,2.241l-.079-.007-5.989-.433a1.992,1.992,0,0,0-1.085.231l-4.854,2.6a6.185,6.185,0,0,1-5.848-.011l-.049-.025L42.6,94.535a1.993,1.993,0,0,0-.893-.212q-.1,0-.2.01l-5.528.551a6.214,6.214,0,0,1-5.345-2.172l-4.047-4.677a1.99,1.99,0,0,0-.931-.6l-5.328-1.609a6.244,6.244,0,0,1-4.262-4.55q-.021-.089-.049-.175l-1.731-5.215a1.99,1.99,0,0,0-.629-.914L9.347,71.434A6.2,6.2,0,0,1,7.106,65.92c0-.026.005-.053.007-.079l.433-5.989a1.992,1.992,0,0,0-.231-1.085l-2.6-4.853a6.187,6.187,0,0,1,.011-5.848l.025-.049L7.465,42.6a1.991,1.991,0,0,0,.2-1.091l-.551-5.529A6.216,6.216,0,0,1,9.287,30.64l4.677-4.047a1.993,1.993,0,0,0,.6-.93l1.61-5.328a6.244,6.244,0,0,1,4.55-4.262q.089-.021.175-.049l5.214-1.731a1.99,1.99,0,0,0,.914-.629l3.535-4.316A6.2,6.2,0,0,1,36.08,7.106l.079.007,5.989.433a2,2,0,0,0,1.085-.231l4.854-2.6a6.186,6.186,0,0,1,5.848.011l.049.025,5.412,2.715a1.99,1.99,0,0,0,1.091.2l5.528-.551a6.215,6.215,0,0,1,5.345,2.172l4.047,4.677a1.991,1.991,0,0,0,.931.6l5.328,1.61a6.245,6.245,0,0,1,4.262,4.55q.021.089.049.175l1.731,5.214a1.992,1.992,0,0,0,.629.914l4.316,3.534a6.2,6.2,0,0,1,2.241,5.514c0,.026-.005.053-.007.079l-.433,5.989a1.994,1.994,0,0,0,.231,1.085l2.6,4.854a6.186,6.186,0,0,1-.011,5.849Z" transform="translate(0.001 0)" fill="#00549f"/>
      <path id="Контур_107" data-name="Контур 107" d="M155.053,120.38a1.99,1.99,0,0,0-1.8-1.14H142.728a1.992,1.992,0,0,0-1.992,1.992v30.155a1.992,1.992,0,0,0,1.992,1.992h10.526a1.992,1.992,0,0,0,1.836-1.218,37.751,37.751,0,0,1,4.712,1.1,28.643,28.643,0,0,0,7.611,1.379h11.5a7.991,7.991,0,0,0,7.707-5.042,7.15,7.15,0,0,0,.366-4.471,7.187,7.187,0,0,0,1.643-2.2,7.59,7.59,0,0,0,.542-5.38,7.458,7.458,0,0,0,1.964-7.008,6,6,0,0,0,1.146-9.545,6.229,6.229,0,0,0-4.321-1.7H171.75a5.41,5.41,0,0,1-.914-5.329,10.342,10.342,0,0,0-.289-9.506c-1.216-2.309-4.487-4.607-7.236-4.215a3.77,3.77,0,0,0-3.217,3.142,11.64,11.64,0,0,0-.165,1.7,14.079,14.079,0,0,1-1.549,6.319,16.789,16.789,0,0,0-1.5,5.17C156.5,118.855,156.31,119.957,155.053,120.38Zm-10.333,2.844h6.542v26.17H144.72Zm16.093-5.993a13.48,13.48,0,0,1,1.1-3.991,18.057,18.057,0,0,0,2-7.957,10.02,10.02,0,0,1,.09-1.106v0a4.671,4.671,0,0,1,3.022,2.139,6.361,6.361,0,0,1,.135,6.12,9.193,9.193,0,0,0,.058,6.879,1.991,1.991,0,0,0,.276,3.963h20.469a2.263,2.263,0,0,1,1.574.6,2.03,2.03,0,0,1,.624,1.517,2.144,2.144,0,0,1-2.139,2.018l-5.128.112a1.992,1.992,0,0,0,.043,3.984h.044l4.27-.093a3.24,3.24,0,0,1-.081,2.01,2.667,2.667,0,0,1-2.6,1.964,1.992,1.992,0,1,0,0,3.984,7.044,7.044,0,0,0,.889-.056,3.9,3.9,0,0,1-.4,1.857,2.665,2.665,0,0,1-2.456,1.639,1.992,1.992,0,1,0,0,3.984q.309,0,.612-.027a3.759,3.759,0,0,1-.3,1.383,4.066,4.066,0,0,1-3.992,2.5h-11.5a25.328,25.328,0,0,1-6.548-1.235,38.276,38.276,0,0,0-5.619-1.254V124.412C159.732,123.6,160.35,119.968,160.814,117.231Z" transform="translate(-112.699 -80.234)" fill="#00549f"/>
      <path id="Контур_108" data-name="Контур 108" d="M247.992,59.985a1.992,1.992,0,1,0,0-3.984h0a1.992,1.992,0,0,0,0,3.984Z" transform="translate(-196.992 -44.845)" fill="#00549f"/>
    </g>
  </g>
</svg>
