<svg xmlns="http://www.w3.org/2000/svg" width="104.333" height="104.333" viewBox="0 0 104.333 104.333">
  <g id="Icons_copy" data-name="Icons copy" transform="translate(-16 -16)">
    <path id="Контур_68" data-name="Контур 68" d="M115.117,416.694H95.989v-3.478A5.223,5.223,0,0,0,90.772,408H45.561a5.223,5.223,0,0,0-5.217,5.217v3.478H21.217a5.217,5.217,0,0,0,0,10.433h93.9a5.217,5.217,0,1,0,0-10.433Zm-71.294-3.478a1.741,1.741,0,0,1,1.739-1.739H90.772a1.741,1.741,0,0,1,1.739,1.739v3.478H43.822Zm71.294,10.433h-93.9a1.739,1.739,0,0,1,0-3.478h93.9a1.739,1.739,0,0,1,0,3.478Z" transform="translate(0 -306.794)" fill="#00549f"/>
    <path id="Контур_69" data-name="Контур 69" d="M0,0H10.433V3.478H0Z" transform="translate(49.225 44.438) rotate(-45)" fill="#00549f"/>
    <path id="Контур_70" data-name="Контур 70" d="M0,0H6.956V3.478H0Z" transform="translate(55.371 48.127) rotate(-45)" fill="#00549f"/>
    <path id="Контур_71" data-name="Контур 71" d="M119.644,57.733h3.478V22.956a1.739,1.739,0,0,0-.509-1.23L117.4,16.509a1.739,1.739,0,0,0-1.23-.509H70.956a1.739,1.739,0,0,0-1.23.509l-5.217,5.217A1.739,1.739,0,0,0,64,22.956V82.078a1.739,1.739,0,0,0,.509,1.23l5.217,5.217a1.739,1.739,0,0,0,1.23.509H97.039V85.556H71.676l-4.2-4.2V23.676l4.2-4.2h43.771l4.2,4.2Z" transform="translate(-37.567)" fill="#00549f"/>
    <path id="Контур_72" data-name="Контур 72" d="M96,48h3.478v3.478H96Z" transform="translate(-62.611 -25.044)" fill="#00549f"/>
    <path id="Контур_73" data-name="Контур 73" d="M288,48h3.478v3.478H288Z" transform="translate(-212.878 -25.044)" fill="#00549f"/>
    <path id="Контур_74" data-name="Контур 74" d="M96,304h3.478v3.478H96Z" transform="translate(-62.611 -225.4)" fill="#00549f"/>
    <path id="Контур_75" data-name="Контур 75" d="M286.885,280H262.54a1.739,1.739,0,0,0-1.23.509l-2.968,2.968h-6.235a1.739,1.739,0,0,0-1.739,1.739h-8.694a1.739,1.739,0,0,0-1.23.509l-7.825,7.825a5.428,5.428,0,1,0,7.676,7.676l5.577-5.577h4.5a1.739,1.739,0,0,0,1.739,1.739h34.778a1.739,1.739,0,0,0,1.739-1.739V281.739A1.739,1.739,0,0,0,286.884,280Zm-41.733,12.172a1.739,1.739,0,0,0-1.23.509l-6.086,6.086a1.95,1.95,0,0,1-2.757-2.757l7.316-7.316h7.974v3.478Zm12.172,1.739h-3.478v-6.956h3.478Zm17.389,0h-6.956v-1.739a1.741,1.741,0,0,1,1.739-1.739h3.478a1.741,1.741,0,0,1,1.739,1.739Zm10.433,0H278.19v-1.739a5.223,5.223,0,0,0-5.217-5.217H269.5a5.223,5.223,0,0,0-5.217,5.217v1.739H260.8v-7.974l2.459-2.459h21.885Z" transform="translate(-168.29 -206.617)" fill="#00549f"/>
    <path id="Контур_76" data-name="Контур 76" d="M138.778,133.211V119.3h5.217v-3.478h-5.217v-3.478h5.217a1.739,1.739,0,0,0,1.739-1.739V89.739A1.739,1.739,0,0,0,143.994,88H105.739A1.739,1.739,0,0,0,104,89.739v20.867a1.739,1.739,0,0,0,1.739,1.739H135.3v3.478H105.739V119.3H135.3v13.911Zm-31.3-24.344V91.478h34.778v17.389h-3.478v-3.478H135.3v3.478Z" transform="translate(-68.872 -56.35)" fill="#00549f"/>
    <path id="Контур_77" data-name="Контур 77" d="M0,0H3.478V7.2H0Z" transform="translate(58.58 66.873) rotate(-15.009)" fill="#00549f"/>
    <path id="Контур_78" data-name="Контур 78" d="M0,0H3.478V12.691H0Z" transform="matrix(0.866, -0.5, 0.5, 0.866, 49.271, 66.738)" fill="#00549f"/>
    <path id="Контур_79" data-name="Контур 79" d="M0,0H3.478V19.673H0Z" transform="translate(37.367 67.655) rotate(-45)" fill="#00549f"/>
    <path id="Контур_80" data-name="Контур 80" d="M0,0H3.478V4.016H0Z" transform="matrix(0.5, -0.866, 0.866, 0.5, 39.473, 81.435)" fill="#00549f"/>
    <path id="Контур_81" data-name="Контур 81" d="M112,376h19.128v3.478H112Z" transform="translate(-75.133 -281.75)" fill="#00549f"/>
    <path id="Контур_82" data-name="Контур 82" d="M312,376h17.389v3.478H312Z" transform="translate(-231.661 -281.75)" fill="#00549f"/>
    <path id="Контур_83" data-name="Контур 83" d="M0,0H10.063V3.478H0Z" transform="translate(93.006 68.679) rotate(-45)" fill="#00549f"/>
    <path id="Контур_84" data-name="Контур 84" d="M0,0H17.821V3.478H0Z" transform="matrix(0.5, -0.866, 0.866, 0.5, 78.831, 74.036)" fill="#00549f"/>
    <path id="Контур_85" data-name="Контур 85" d="M0,0H7.2V3.478H0Z" transform="translate(72.561 72.941) rotate(-74.991)" fill="#00549f"/>
    <path id="Контур_86" data-name="Контур 86" d="M408,376h3.478v3.478H408Z" transform="translate(-306.794 -281.75)" fill="#00549f"/>
    <path id="Контур_87" data-name="Контур 87" d="M80,376h3.478v3.478H80Z" transform="translate(-50.089 -281.75)" fill="#00549f"/>
  </g>
</svg>
