<svg xmlns="http://www.w3.org/2000/svg" width="29.5" height="29.5" viewBox="0 0 29.5 29.5"><defs><style>.a{fill:#fff;}.b{fill:none;}</style></defs><path class="a" d="M8.375,21.667a2.458,2.458,0,1,0,2.458,2.458A2.455,2.455,0,0,0,8.375,21.667ZM1,2V4.458H3.458l4.425,9.329L6.224,16.8a2.377,2.377,0,0,0-.307,1.18,2.466,2.466,0,0,0,2.458,2.458h14.75V17.979H8.891a.3.3,0,0,1-.307-.307l.037-.147,1.106-2h9.157a2.447,2.447,0,0,0,2.151-1.266l4.4-7.977a1.2,1.2,0,0,0,.147-.59,1.233,1.233,0,0,0-1.229-1.229H6.175L5.019,2H1ZM20.667,21.667a2.458,2.458,0,1,0,2.458,2.458A2.455,2.455,0,0,0,20.667,21.667Z" transform="translate(0.229 0.458)"/><path class="b" d="M0,0H29.5V29.5H0Z"/></svg>