<svg xmlns="http://www.w3.org/2000/svg" width="60.57" height="92" viewBox="0 0 60.57 92">
  <g id="chemical" transform="translate(-29.426 -5.73)">
    <path id="Контур_171" data-name="Контур 171" d="M89.105,89.741,70.2,54.35V41.957a5.487,5.487,0,0,0,5.44-4.835,5.359,5.359,0,0,0-5.332-5.878H49.282a5.489,5.489,0,0,0-5.5,4.836,5.359,5.359,0,0,0,5.332,5.878h.108V54.35L30.32,89.741A7.579,7.579,0,0,0,37,100.893H82.417A7.579,7.579,0,0,0,89.1,89.741ZM49.121,38.892a2.293,2.293,0,0,1-2.278-2.52,2.4,2.4,0,0,1,2.444-2.061H70.312a2.293,2.293,0,0,1,2.278,2.52,2.4,2.4,0,0,1-2.444,2.061h-9.7a1.533,1.533,0,0,0,0,3.066h6.689V54.734a1.538,1.538,0,0,0,.17.7,65.929,65.929,0,0,1-16.955,3.333l1.766-3.306a1.539,1.539,0,0,0,.18-.723V41.958h.761a1.533,1.533,0,0,0,0-3.066ZM86.29,95.636a4.477,4.477,0,0,1-3.869,2.19H37.008a4.513,4.513,0,0,1-3.978-6.641l15.653-29.3a67.935,67.935,0,0,0,20.084-3.706L86.4,91.187a4.484,4.484,0,0,1-.11,4.449Z" transform="translate(0 -3.163)" fill="#00549f"/>
    <path id="Контур_172" data-name="Контур 172" d="M54.068,27.548A4.468,4.468,0,1,0,49.6,23.081a4.468,4.468,0,0,0,4.468,4.468Zm0-5.875a1.4,1.4,0,1,1-1.4,1.4A1.4,1.4,0,0,1,54.068,21.673Z" transform="translate(-2.501 -1.597)" fill="#00549f"/>
    <path id="Контур_173" data-name="Контур 173" d="M49.232,90.413a4.582,4.582,0,1,0,4.581,4.581,4.582,4.582,0,0,0-4.581-4.581Zm0,6.534a1.954,1.954,0,1,1,1.953-1.953,1.954,1.954,0,0,1-1.953,1.953Z" transform="translate(-1.887 -10.499)" fill="#00549f"/>
    <path id="Контур_174" data-name="Контур 174" d="M69.611,70.015a3.927,3.927,0,1,0,3.926,3.929,3.927,3.927,0,0,0-3.926-3.929Zm0,5.225a1.3,1.3,0,1,1,1.3-1.3A1.3,1.3,0,0,1,69.611,75.24Z" transform="translate(-4.495 -7.97)" fill="#00549f"/>
    <path id="Контур_175" data-name="Контур 175" d="M77.992,95.628a3.592,3.592,0,1,0,3.592,3.592A3.592,3.592,0,0,0,77.992,95.628Zm0,4.549a.964.964,0,1,1,.964-.964.964.964,0,0,1-.964.964Z" transform="translate(-5.576 -11.145)" fill="#00549f"/>
    <path id="Контур_176" data-name="Контур 176" d="M63.492,55.783A3.592,3.592,0,1,0,59.9,52.192,3.592,3.592,0,0,0,63.492,55.783Zm0-4.555a.964.964,0,1,1-.964.964A.964.964,0,0,1,63.492,51.228Z" transform="translate(-3.778 -5.315)" fill="#00549f"/>
    <circle id="Эллипс_2" data-name="Эллипс 2" cx="1.801" cy="1.801" r="1.801" transform="translate(50.889 69.177)" fill="#00549f"/>
    <circle id="Эллипс_3" data-name="Эллипс 3" cx="1.608" cy="1.608" r="1.608" transform="translate(61.899 78.895)" fill="#00549f"/>
    <path id="Контур_177" data-name="Контур 177" d="M70.256,20.076A7.173,7.173,0,1,0,63.083,12.9a7.173,7.173,0,0,0,7.173,7.173Zm0-11.279A4.107,4.107,0,1,1,66.149,12.9,4.107,4.107,0,0,1,70.256,8.8Z" transform="translate(-4.173 0)" fill="#00549f"/>
  </g>
</svg>
