<svg xmlns="http://www.w3.org/2000/svg" width="68.9" height="94" viewBox="0 0 68.9 94">
  <g id="fire" transform="translate(-11.115 -2.003)">
    <path id="Контур_178" data-name="Контур 178" d="M47.757,96a30.2,30.2,0,0,1-10.424-1.814h0C25.357,89.8,17.368,82.885,13.59,73.642c-6.2-15.175,1.162-30.989,1.477-31.654a1.343,1.343,0,0,1,2.507.216,17.69,17.69,0,0,0,5.506,7.837c3.074-15.427,16.531-24.763,17.129-25.173,8.683-6.951,1.591-20.761,1.519-20.9A1.343,1.343,0,0,1,43.763,2.3C67.676,21.707,66.3,41.252,64.371,49.283a13.026,13.026,0,0,0,4.872-12.051,1.343,1.343,0,0,1,2.441-.94,60.847,60.847,0,0,1,6.277,12.923,36.7,36.7,0,0,1-6.3,35.41l-.287.351A30.484,30.484,0,0,1,47.757,96Zm-9.5-4.336a27.519,27.519,0,0,0,9.5,1.65A27.812,27.812,0,0,0,69.3,83.267l.269-.336A34.029,34.029,0,0,0,75.421,50.1a60.88,60.88,0,0,0-3.61-8.258c-1.477,8.08-9.208,11.838-9.3,11.882A1.343,1.343,0,0,1,60.72,51.94c.424-.91,9.669-21.621-14.665-44.1,1.552,5.381,2.48,13.8-4.258,19.188-.224.158-14.486,10.08-16.433,25.65a1.343,1.343,0,0,1-2.087.94,24.923,24.923,0,0,1-6.944-7.489c-1.763,5.158-4.487,16.17-.25,26.51,3.484,8.507,10.943,14.906,22.173,19.024Z" transform="translate(0 0)" fill="#00549f"/>
    <path id="Контур_179" data-name="Контур 179" d="M36.7,85.291a1.343,1.343,0,0,1-.865-.316C18.724,70.55,30.781,52.1,30.9,51.919a1.343,1.343,0,0,1,2.456.663,9.007,9.007,0,0,0,2.095,5.628A27.292,27.292,0,0,1,47.293,31.825,1.343,1.343,0,0,1,49.163,33.6a9.322,9.322,0,0,0-1.082,4.546A9.857,9.857,0,0,0,49.767,43.3l.537.821a84.2,84.2,0,0,0,5.775,7.6,23.673,23.673,0,0,1,3.813,6.49c6.731,13.876-4.834,24.814-4.947,24.925a1.343,1.343,0,1,1-1.827-1.969c.42-.392,10.24-9.749,4.328-21.842a1.3,1.3,0,0,1-.06-.146,21.119,21.119,0,0,0-3.373-5.741,86.657,86.657,0,0,1-5.958-7.849l-.537-.821A12.544,12.544,0,0,1,45.392,38.2a12.086,12.086,0,0,1,.07-1.567c-3.868,3.657-9.535,11.442-6.862,24.172a1.343,1.343,0,0,1-1.7,1.562,9.171,9.171,0,0,1-5.452-5.757c-2.382,5.425-5.237,16.734,6.122,26.313A1.343,1.343,0,0,1,36.7,85.3Z" transform="translate(5.333 10.164)" fill="#00549f"/>
  </g>
</svg>
