<svg id="flood" xmlns="http://www.w3.org/2000/svg" width="90" height="90" viewBox="0 0 90 90">
  <g id="Сгруппировать_102" data-name="Сгруппировать 102">
    <g id="Сгруппировать_101" data-name="Сгруппировать 101">
      <path id="Контур_180" data-name="Контур 180" d="M81.561,3.329C79.767,4.762,78.219,6,74.994,6s-4.774-1.238-6.567-2.672C66.476,1.769,64.264,0,59.987,0S53.5,1.769,51.55,3.329C49.759,4.762,48.213,6,44.99,6s-4.771-1.238-6.564-2.672C36.475,1.769,34.264,0,29.988,0S23.5,1.769,21.552,3.33C19.761,4.762,18.215,6,14.993,6s-4.769-1.238-6.56-2.672C6.483,1.769,4.275,0,0,0V3C3.22,3,4.767,4.238,6.558,5.67,8.508,7.232,10.717,9,14.993,9s6.484-1.768,8.436-3.329C25.218,4.238,26.764,3,29.988,3s4.771,1.238,6.564,2.672C38.5,7.232,40.713,9,44.99,9s6.486-1.768,8.436-3.33C55.216,4.238,56.763,3,59.987,3s4.774,1.238,6.567,2.672C68.5,7.232,70.716,9,74.994,9s6.489-1.768,8.44-3.329C85.227,4.238,86.775,3,90,3V0C85.722,0,83.511,1.769,81.561,3.329Z" fill="#00549f"/>
    </g>
  </g>
  <g id="Сгруппировать_104" data-name="Сгруппировать 104" transform="translate(0 31.5)">
    <g id="Сгруппировать_103" data-name="Сгруппировать 103">
      <path id="Контур_181" data-name="Контур 181" d="M81.561,171.328C79.767,172.762,78.219,174,74.994,174s-4.774-1.238-6.567-2.672c-1.951-1.56-4.163-3.328-8.44-3.328s-6.485,1.768-8.436,3.328C49.759,172.762,48.213,174,44.99,174s-4.771-1.238-6.564-2.672c-1.95-1.56-4.161-3.328-8.437-3.328s-6.486,1.768-8.436,3.33c-1.791,1.432-3.337,2.67-6.559,2.67s-4.769-1.238-6.56-2.672C6.483,169.768,4.275,168,0,168v3c3.22,0,4.767,1.238,6.558,2.67,1.95,1.562,4.159,3.33,8.434,3.33s6.484-1.768,8.436-3.328c1.79-1.434,3.336-2.672,6.56-2.672s4.771,1.238,6.564,2.672C38.5,175.232,40.713,177,44.99,177s6.486-1.768,8.436-3.33c1.791-1.432,3.338-2.67,6.561-2.67s4.774,1.238,6.567,2.672c1.95,1.56,4.163,3.328,8.44,3.328s6.489-1.768,8.44-3.328C85.227,172.238,86.775,171,90,171v-3C85.722,168,83.511,169.768,81.561,171.328Z" transform="translate(0 -168)" fill="#00549f"/>
    </g>
  </g>
  <g id="Сгруппировать_106" data-name="Сгруппировать 106" transform="translate(0 15)">
    <g id="Сгруппировать_105" data-name="Сгруппировать 105">
      <path id="Контур_182" data-name="Контур 182" d="M81.561,83.328C79.767,84.762,78.219,86,74.994,86s-4.774-1.238-6.567-2.672C66.476,81.769,64.264,80,59.987,80S53.5,81.769,51.55,83.328C49.759,84.762,48.213,86,44.99,86s-4.771-1.238-6.564-2.672C36.476,81.769,34.264,80,29.988,80s-6.486,1.769-8.436,3.33C19.761,84.762,18.215,86,14.993,86s-4.769-1.238-6.56-2.672C6.483,81.769,4.275,80,0,80v3c3.22,0,4.767,1.238,6.558,2.67C8.508,87.231,10.717,89,14.993,89s6.484-1.769,8.436-3.328C25.218,84.238,26.764,83,29.988,83s4.771,1.238,6.564,2.672C38.5,87.231,40.713,89,44.99,89s6.486-1.769,8.436-3.33C55.216,84.238,56.763,83,59.987,83s4.774,1.238,6.567,2.672C68.5,87.231,70.716,89,74.994,89s6.489-1.769,8.44-3.328C85.227,84.238,86.775,83,90,83V80C85.722,80,83.511,81.769,81.561,83.328Z" transform="translate(0 -80)" fill="#00549f"/>
    </g>
  </g>
  <g id="Сгруппировать_108" data-name="Сгруппировать 108" transform="translate(0 48)">
    <g id="Сгруппировать_107" data-name="Сгруппировать 107">
      <path id="Контур_183" data-name="Контур 183" d="M81.561,259.328C79.767,260.763,78.219,262,74.994,262s-4.774-1.237-6.567-2.672c-1.951-1.56-4.163-3.328-8.44-3.328s-6.485,1.768-8.436,3.328C49.759,260.763,48.213,262,44.99,262s-4.771-1.237-6.564-2.672c-1.95-1.56-4.161-3.328-8.437-3.328s-6.486,1.768-8.436,3.33c-1.791,1.432-3.337,2.67-6.559,2.67s-4.769-1.237-6.56-2.672C6.483,257.768,4.275,256,0,256v3c3.22,0,4.767,1.237,6.558,2.67,1.95,1.562,4.159,3.33,8.434,3.33s6.484-1.768,8.436-3.328c1.79-1.434,3.336-2.672,6.56-2.672s4.771,1.237,6.564,2.672C38.5,263.232,40.713,265,44.99,265s6.486-1.768,8.436-3.33c1.791-1.432,3.338-2.67,6.561-2.67s4.774,1.237,6.567,2.672c1.95,1.56,4.163,3.328,8.44,3.328s6.489-1.768,8.44-3.328C85.227,260.237,86.775,259,90,259v-3C85.722,256,83.511,257.768,81.561,259.328Z" transform="translate(0 -256)" fill="#00549f"/>
    </g>
  </g>
  <g id="Сгруппировать_110" data-name="Сгруппировать 110" transform="translate(0 81)">
    <g id="Сгруппировать_109" data-name="Сгруппировать 109">
      <path id="Контур_184" data-name="Контур 184" d="M81.561,435.328C79.767,436.763,78.219,438,74.994,438s-4.774-1.237-6.567-2.672c-1.951-1.56-4.163-3.328-8.44-3.328s-6.485,1.768-8.436,3.328C49.759,436.763,48.213,438,44.99,438s-4.771-1.237-6.564-2.672c-1.95-1.56-4.161-3.328-8.437-3.328s-6.486,1.768-8.436,3.33c-1.791,1.432-3.337,2.67-6.559,2.67s-4.769-1.237-6.56-2.672C6.483,433.768,4.275,432,0,432v3c3.22,0,4.767,1.237,6.558,2.67,1.95,1.562,4.159,3.33,8.434,3.33s6.484-1.768,8.436-3.328c1.79-1.434,3.336-2.672,6.56-2.672s4.771,1.237,6.564,2.672C38.5,439.232,40.713,441,44.99,441s6.486-1.768,8.436-3.33c1.791-1.432,3.338-2.67,6.561-2.67s4.774,1.237,6.567,2.672c1.95,1.56,4.163,3.328,8.44,3.328s6.489-1.768,8.44-3.328C85.227,436.237,86.775,435,90,435v-3C85.722,432,83.511,433.768,81.561,435.328Z" transform="translate(0 -432)" fill="#00549f"/>
    </g>
  </g>
  <g id="Сгруппировать_112" data-name="Сгруппировать 112" transform="translate(0 64.5)">
    <g id="Сгруппировать_111" data-name="Сгруппировать 111">
      <path id="Контур_185" data-name="Контур 185" d="M81.561,347.328C79.767,348.763,78.219,350,74.994,350s-4.774-1.237-6.567-2.672c-1.951-1.56-4.163-3.328-8.44-3.328s-6.485,1.768-8.436,3.328C49.759,348.763,48.213,350,44.99,350s-4.771-1.237-6.564-2.672c-1.95-1.56-4.161-3.328-8.437-3.328s-6.486,1.768-8.436,3.33c-1.791,1.432-3.337,2.67-6.559,2.67s-4.769-1.237-6.56-2.672C6.483,345.768,4.275,344,0,344v3c3.22,0,4.767,1.237,6.558,2.67,1.95,1.562,4.159,3.33,8.434,3.33s6.484-1.768,8.436-3.328c1.79-1.434,3.336-2.672,6.56-2.672s4.771,1.237,6.564,2.672C38.5,351.232,40.713,353,44.99,353s6.486-1.768,8.436-3.33c1.791-1.432,3.338-2.67,6.561-2.67s4.774,1.237,6.567,2.672c1.95,1.56,4.163,3.328,8.44,3.328s6.489-1.768,8.44-3.328C85.227,348.237,86.775,347,90,347v-3C85.722,344,83.511,345.768,81.561,347.328Z" transform="translate(0 -344)" fill="#00549f"/>
    </g>
  </g>
</svg>
