<svg xmlns="http://www.w3.org/2000/svg" width="94.567" height="88" viewBox="0 0 94.567 88">
  <g id="hammer" transform="translate(0 -16.97)">
    <g id="Сгруппировать_100" data-name="Сгруппировать 100" transform="translate(0 16.97)">
      <path id="Контур_170" data-name="Контур 170" d="M94.114,45.883h0L90.641,42.41a4.609,4.609,0,0,0-3.283-1.361h-4a1.548,1.548,0,0,1-1.094-.452l-1.282-1.283a1.548,1.548,0,0,1,0-2.189h0l1.094-1.094a1.548,1.548,0,0,0,0-2.189l-10.911-10.9a1.545,1.545,0,0,0-.235-.192,29.584,29.584,0,0,0-15.347-4.973l-21.609-.8a1.548,1.548,0,0,0-.687,2.961l20.432,9.12a23.313,23.313,0,0,1,5.367,3.715l-5.459,5.459a1.548,1.548,0,0,0,0,2.189L2.172,91.854A7.739,7.739,0,0,0,13.116,102.8L64.56,51.355a1.548,1.548,0,0,0,2.189,0l3.285-3.283a1.584,1.584,0,0,1,2.189,0L73.5,49.353a1.536,1.536,0,0,1,.454,1.094v4a4.607,4.607,0,0,0,1.361,3.283l3.47,3.472a1.548,1.548,0,0,0,2.189,0h0L94.113,48.072A1.548,1.548,0,0,0,94.114,45.883ZM10.929,100.609a4.644,4.644,0,0,1-6.568-6.568L55.8,42.6l6.568,6.568ZM79.883,57.923l-2.374-2.378a1.56,1.56,0,0,1-.454-1.094v-4a4.613,4.613,0,0,0-1.361-3.283l-1.282-1.283a4.644,4.644,0,0,0-6.566,0l-2.19,2.189L56.9,39.314l5.473-5.473a1.548,1.548,0,0,0,0-2.189l-.438-.438a26.486,26.486,0,0,0-6.9-4.953l-13.2-5.9,13.631.5a26.469,26.469,0,0,1,13.622,4.37l9.7,9.7a4.652,4.652,0,0,0,0,6.568l1.283,1.283a4.614,4.614,0,0,0,3.283,1.359h4a1.56,1.56,0,0,1,1.094.454l2.378,2.378Z" transform="translate(0 -16.97)" fill="#00549f"/>
    </g>
  </g>
</svg>
