<?xml version="1.0" encoding="utf-8"?>
<!-- Generator: Adobe Illustrator 18.1.1, SVG Export Plug-In . SVG Version: 6.00 Build 0)  -->
<svg version="1.1" id="Layer_1" xmlns="http://www.w3.org/2000/svg" xmlns:xlink="http://www.w3.org/1999/xlink" x="0px" y="0px"
	 viewBox="0 0 90 90" enable-background="new 0 0 90 90" xml:space="preserve">
<g transform="translate(0 -1)">
	<g>
		<g>
			<path fill="#1C75BC" d="M87.2,23.9L45.9,2.4c-0.8-0.4-1.9-0.4-2.7,0c-0.5,0.2-0.8,0.7-0.8,1.2c0,0.5,0.2,1,0.7,1.3
				c0.4,0.3,1,0.3,1.5,0.1l41.2,21.5v3.5H43.1c-0.8,0-1.5,0.7-1.5,1.5s0.7,1.5,1.5,1.5h39.8v54.5h-4.4V37.4c0-0.8-0.7-1.5-1.5-1.5
				H43.1c-0.8,0-1.5,0.7-1.5,1.5s0.7,1.5,1.5,1.5h32.4v48.6h-2.9V43.3c0-0.8-0.7-1.5-1.5-1.5h-28c-0.8,0-1.5,0.7-1.5,1.5
				s0.7,1.5,1.5,1.5h26.5v2.9H43.1c-0.8,0-1.5,0.7-1.5,1.5c0,0.8,0.7,1.5,1.5,1.5h26.5v2.9H43.1c-0.8,0-1.5,0.7-1.5,1.5
				c0,0.8,0.7,1.5,1.5,1.5h26.5v2.9H43.1c-0.8,0-1.5,0.7-1.5,1.5c0,0.8,0.7,1.5,1.5,1.5h26.5v2.9H43.1c-0.8,0-1.5,0.7-1.5,1.5
				s0.7,1.5,1.5,1.5h26.5v2.9H18.1c-0.8,0-1.5,0.7-1.5,1.5v14.7h-2.9V72.8c0-0.8-0.7-1.5-1.5-1.5c-0.8,0-1.5,0.7-1.5,1.5v14.7H6.3
				V72.8c0-0.8-0.7-1.5-1.5-1.5S3.3,72,3.3,72.8v14.7c0,1.6,1.3,2.9,2.9,2.9h76.6c1.6,0,2.9-1.3,2.9-2.9V33c1.6,0,2.9-1.3,2.9-3
				v-3.5C88.8,25.4,88.2,24.4,87.2,23.9z M69.6,87.5H19.5v-7.4h50.1L69.6,87.5L69.6,87.5z M69.6,77.2H19.5v-2.9h50.1L69.6,77.2
				L69.6,77.2z"/>
			<path fill="#1C75BC" d="M34.3,68.4c2.4,0,4.4-2,4.4-4.4V6.5c0-2.4-2-4.4-4.4-4.4H4.8c-2.4,0-4.4,2-4.4,4.4V64
				c0,2.4,2,4.4,4.4,4.4H34.3z M3.3,6.5C3.3,5.7,4,5,4.8,5h29.5c0.8,0,1.5,0.7,1.5,1.5v47.1H3.3V6.5z M3.3,64v-7.4h32.4V64
				c0,0.8-0.7,1.5-1.5,1.5H4.8C4,65.4,3.3,64.8,3.3,64z"/>
			<path fill="#1C75BC" d="M18.1,62.5H21c0.8,0,1.5-0.7,1.5-1.5s-0.7-1.5-1.5-1.5h-2.9c-0.8,0-1.5,0.7-1.5,1.5S17.2,62.5,18.1,62.5z
				"/>
			<path fill="#1C75BC" d="M31.3,10.9H7.7c-0.8,0-1.5,0.7-1.5,1.5V36c0,0.8,0.7,1.5,1.5,1.5h23.6c0.8,0,1.5-0.7,1.5-1.5V12.4
				C32.8,11.6,32.1,10.9,31.3,10.9z M29.8,34.5H9.2v-8.8h20.6V34.5z M29.8,22.7H9.2v-2.9h20.6V22.7z M29.8,16.8H9.2v-2.9h20.6V16.8z
				"/>
			<path fill="#1C75BC" d="M20.6,40.8C20.6,40.8,20.5,40.8,20.6,40.8c-0.2-0.2-0.3-0.3-0.5-0.3c0,0,0,0,0,0
				c-0.2-0.1-0.3-0.1-0.5-0.1c0,0-0.1,0-0.1,0c-0.1,0-0.3,0-0.4,0.1c-0.1,0-0.1,0-0.1,0.1c-0.2,0.1-0.3,0.2-0.4,0.3l-2.9,2.9
				c-0.6,0.6-0.6,1.5,0,2.1c0.6,0.6,1.5,0.6,2.1,0l0.4-0.4v3.8c0,0.8,0.7,1.5,1.5,1.5S21,50,21,49.2v-3.8l0.4,0.4
				c0.6,0.6,1.5,0.6,2.1,0c0.6-0.6,0.6-1.5,0-2.1L20.6,40.8z"/>
		</g>
	</g>
</g>
</svg>
