<?xml version="1.0" encoding="utf-8"?>
<!-- Generator: Adobe Illustrator 18.1.1, SVG Export Plug-In . SVG Version: 6.00 Build 0)  -->
<svg version="1.1" id="Layer_1" xmlns="http://www.w3.org/2000/svg" xmlns:xlink="http://www.w3.org/1999/xlink" x="0px" y="0px"
	 viewBox="0 0 76 76" enable-background="new 0 0 76 76" xml:space="preserve">
<g>
	<path fill="#1C75BC" d="M13.8,58.9c-1,0-2.1,0.3-2.9,0.8C6.2,53.6,3.6,46,3.6,38.3c0-19.2,15.5-34.8,34.5-34.8
		c2.3,0,4.6,0.2,6.9,0.7c0.8,0.2,1.6-0.4,1.7-1.2c0.2-0.8-0.4-1.6-1.1-1.7c-2.4-0.5-4.9-0.7-7.4-0.7c-10,0-19.4,3.9-26.4,11
		s-11,16.6-11,26.7c0,8.5,2.9,16.7,8,23.4c-0.7,1-1,2.2-1,3.4c0,1.7,0.6,3.2,1.8,4.4c1.2,1.2,2.7,1.8,4.3,1.8s3.2-0.6,4.3-1.8
		c1.2-1.2,1.8-2.7,1.8-4.4c0-1.7-0.6-3.2-1.8-4.4C17,59.5,15.5,58.9,13.8,58.9z M16.1,67.4c-0.6,0.6-1.4,0.9-2.3,0.9
		c-0.9,0-1.7-0.3-2.3-0.9s-0.9-1.4-0.9-2.3c0-0.9,0.3-1.7,0.9-2.3c0.6-0.6,1.4-0.9,2.3-0.9c0.9,0,1.7,0.3,2.3,0.9
		c0.6,0.6,0.9,1.4,0.9,2.3C17,65.9,16.7,66.8,16.1,67.4z"/>
	<path fill="#1C75BC" d="M67.4,14.9c1.6-2.4,1.3-5.7-0.8-7.8c-1.2-1.2-2.7-1.8-4.3-1.8S59.1,5.9,58,7.1c-1.2,1.2-1.8,2.7-1.8,4.4
		s0.6,3.2,1.8,4.4c1.2,1.2,2.7,1.8,4.3,1.8c1,0,2.1-0.3,2.9-0.8c4.7,6.1,7.3,13.6,7.3,21.4C72.5,57.4,57.1,73,38.1,73
		c-2.3,0-4.6-0.2-6.8-0.7c-0.8-0.2-1.6,0.4-1.7,1.2c-0.2,0.8,0.4,1.6,1.1,1.7c2.4,0.5,4.9,0.7,7.4,0.7c10,0,19.4-3.9,26.4-11
		c7.1-7.1,11-16.6,11-26.7C75.5,29.8,72.6,21.5,67.4,14.9z M60,13.8c-0.6-0.6-0.9-1.4-0.9-2.3c0-0.9,0.3-1.7,0.9-2.3
		c0.6-0.6,1.4-0.9,2.3-0.9s1.7,0.3,2.3,0.9c1.3,1.3,1.3,3.3,0,4.6c-0.6,0.6-1.4,0.9-2.3,0.9C61.4,14.7,60.6,14.4,60,13.8z"/>
	<path fill="#1C75BC" d="M32,63.6c0,0.8,0.7,1.5,1.5,1.5h9.1c0.8,0,1.5-0.7,1.5-1.5v-2.9c1.9-0.5,3.8-1.3,5.5-2.3l2,2
		c0.3,0.3,0.6,0.4,1,0.4c0.4,0,0.8-0.2,1-0.4l6.5-6.5c0.6-0.6,0.6-1.5,0-2.1l-2-2c1-1.7,1.8-3.6,2.3-5.5h2.8c0.8,0,1.5-0.7,1.5-1.5
		v-9.2c0-0.8-0.7-1.5-1.5-1.5h-2.8c-0.5-1.9-1.3-3.8-2.3-5.5l2-2c0.3-0.3,0.4-0.7,0.4-1c0-0.4-0.2-0.8-0.4-1l-6.5-6.5
		c-0.6-0.6-1.5-0.6-2.1,0l-2,2c-1.7-1-3.6-1.8-5.5-2.3V13c0-0.8-0.7-1.5-1.5-1.5h-9.1c-0.8,0-1.5,0.7-1.5,1.5v2.8
		c-1.9,0.5-3.8,1.3-5.5,2.3l-2-2c-0.6-0.6-1.5-0.6-2.1,0L16,22.6c-0.3,0.3-0.4,0.7-0.4,1s0.2,0.8,0.4,1l2,2c-1,1.7-1.8,3.6-2.3,5.5
		h-2.8c-0.8,0-1.5,0.7-1.5,1.5l0,9.2c0,0.4,0.2,0.8,0.4,1c0.3,0.3,0.6,0.4,1,0.4h2.8c0.5,1.9,1.3,3.8,2.3,5.5l-2,2
		c-0.6,0.6-0.6,1.5,0,2.1l6.5,6.5c0.3,0.3,0.6,0.4,1,0.4h0c0.4,0,0.8-0.2,1-0.4l2-2c1.7,1,3.6,1.8,5.5,2.3V63.6z M27.1,55.4
		c-0.6-0.4-1.3-0.3-1.8,0.2l-1.8,1.8l-4.4-4.4l1.8-1.8c0.5-0.5,0.6-1.3,0.2-1.8c-1.3-2.1-2.3-4.3-2.8-6.7c-0.1-0.7-0.7-1.2-1.4-1.2
		h-2.5l0-6.3h2.5c0.7,0,1.3-0.5,1.4-1.2c0.5-2.4,1.4-4.7,2.8-6.7c0.4-0.6,0.3-1.3-0.2-1.8l-1.8-1.8l4.4-4.4l1.8,1.8
		c0.5,0.5,1.2,0.6,1.8,0.2c2-1.3,4.3-2.3,6.7-2.8c0.7-0.1,1.2-0.7,1.2-1.4v-2.5h6.2v2.5c0,0.7,0.5,1.3,1.2,1.4
		c2.4,0.5,4.6,1.5,6.7,2.8c0.6,0.4,1.3,0.3,1.8-0.2l1.8-1.8l4.4,4.4l-1.8,1.8c-0.5,0.5-0.6,1.3-0.2,1.8c1.3,2.1,2.3,4.3,2.8,6.7
		c0.1,0.7,0.7,1.2,1.4,1.2h2.5v6.3h-2.5c-0.7,0-1.3,0.5-1.4,1.2c-0.5,2.4-1.4,4.7-2.8,6.7c-0.4,0.6-0.3,1.4,0.2,1.8l1.8,1.8
		l-4.4,4.4l-1.8-1.8c-0.5-0.5-1.2-0.6-1.8-0.2c-2,1.3-4.3,2.3-6.7,2.8c-0.7,0.1-1.2,0.7-1.2,1.4v2.5H35v-2.5c0-0.7-0.5-1.3-1.2-1.4
		C31.4,57.6,29.2,56.7,27.1,55.4z"/>
	<path fill="#1C75BC" d="M50.1,38.3c0-6.7-5.4-12.2-12.1-12.2S26,31.6,26,38.3s5.4,12.2,12.1,12.2S50.1,45,50.1,38.3z M28.9,38.3
		c0-5.1,4.1-9.2,9.1-9.2s9.1,4.1,9.1,9.2s-4.1,9.2-9.1,9.2S28.9,43.4,28.9,38.3z"/>
	<path fill="#1C75BC" d="M51.5,6.2c0.4,0,0.8-0.2,1-0.4c0.3-0.3,0.4-0.7,0.4-1c0-0.4-0.2-0.8-0.4-1c-0.3-0.3-0.6-0.4-1-0.4
		c-0.4,0-0.8,0.2-1,0.4c-0.3,0.3-0.4,0.7-0.4,1c0,0.4,0.2,0.8,0.4,1C50.8,6,51.1,6.2,51.5,6.2z"/>
	<path fill="#1C75BC" d="M24.7,70.4c-0.4,0-0.8,0.2-1,0.4s-0.4,0.7-0.4,1c0,0.4,0.2,0.8,0.4,1c0.3,0.3,0.6,0.4,1,0.4s0.8-0.2,1-0.4
		c0.3-0.3,0.4-0.7,0.4-1s-0.2-0.8-0.4-1C25.4,70.6,25.1,70.4,24.7,70.4z"/>
</g>
</svg>
