<?xml version="1.0" encoding="utf-8"?>
<!-- Generator: Adobe Illustrator 18.1.1, SVG Export Plug-In . SVG Version: 6.00 Build 0)  -->
<svg version="1.1" id="Layer_1" xmlns="http://www.w3.org/2000/svg" xmlns:xlink="http://www.w3.org/1999/xlink" x="0px" y="0px"
	 viewBox="0 0 35 30" enable-background="new 0 0 35 30" xml:space="preserve">
<g>
	<path fill="#000000" d="M28.8,18.4l3.7-11.2c0-0.1,0.1-0.2,0.1-0.4c0-0.6-0.5-1-1-1h-6.8c-0.6,0-1,0.5-1,1s0.5,1,1,1h5.4L29,11.3
		H12.1L11,7.9h5.4c0.6,0,1-0.5,1-1s-0.5-1-1-1h-6.1l-1-3.2c-0.1-0.4-0.5-0.7-1-0.7l-3.9,0c-0.6,0-1,0.5-1,1s0.5,1,1,1h3.1
		c1.9,5.7,3.7,11.4,5.6,17.1c-0.7,0.2-1.4,0.5-1.9,1c-0.7,0.7-1.1,1.6-1.1,2.7c0,1,0.4,2,1.1,2.7c0.7,0.7,1.6,1.1,2.7,1.1
		c1,0,2-0.4,2.7-1.1c0.7-0.7,1.1-1.6,1.1-2.7c0-0.6-0.1-1.2-0.4-1.7h7.2c-0.3,0.5-0.4,1.1-0.4,1.7c0,1,0.4,2,1.1,2.7
		c0.7,0.7,1.6,1.1,2.7,1.1c1,0,2-0.4,2.7-1.1c0.7-0.7,1.1-1.6,1.1-2.7c0-1-0.4-2-1.1-2.7c-0.7-0.7-1.7-1.1-2.7-1.1H15.3l-0.6-1.8
		l13.2,0C28.3,19.1,28.7,18.9,28.8,18.4z M26.6,23.6c0.3-0.3,0.7-0.5,1.1-0.5c0.1,0,0.1,0,0.2,0c0.4,0,0.8,0.2,1.1,0.5
		c0.3,0.3,0.5,0.7,0.5,1.2c0,0.5-0.2,0.9-0.5,1.2c-0.3,0.3-0.7,0.5-1.2,0.5c-0.5,0-0.9-0.2-1.2-0.5c-0.3-0.3-0.5-0.7-0.5-1.2
		C26.1,24.3,26.3,23.9,26.6,23.6z M15.1,23.6c0.3,0.3,0.5,0.7,0.5,1.2c0,0.5-0.2,0.9-0.5,1.2c-0.3,0.3-0.7,0.5-1.2,0.5
		c-0.5,0-0.9-0.2-1.2-0.5c-0.3-0.3-0.5-0.7-0.5-1.2c0-0.5,0.2-0.9,0.5-1.2c0.3-0.3,0.7-0.5,1.2-0.5C14.4,23.1,14.8,23.2,15.1,23.6z
		 M14,17.1l-1.2-3.7h15.5l-1.2,3.7H14z"/>
	<circle fill="#000000" cx="20.8" cy="6.9" r="1"/>
</g>
</svg>
