<svg xmlns="http://www.w3.org/2000/svg" width="300" height="78.277" viewBox="0 0 300 78.277"><defs><style>.a{fill:#fff;}</style></defs><g transform="translate(-8.24 -2.71)"><g transform="translate(96.348 23.958)"><path class="a" d="M185.888,55.8h-7.831v9.831h-4.2V43.61h4.2v8.8h7.831v-8.8h4.3V65.624h-4.3Z" transform="translate(-173.86 -43.099)"/><path class="a" d="M213.6,63.25h9.624v3.277H213.6V63.25Z" transform="translate(-192.459 -52.291)"/><path class="a" d="M247.967,60.506h-7.272l-1.383,5.118H234.96l6.809-22.014h5.171l6.809,22.014H249.3Zm-.92-3.176-2.814-10.544L241.418,57.33Z" transform="translate(-202.455 -43.099)"/><path class="a" d="M291.781,59.182c0,4.815-3.841,6.347-9.166,6.347H275.96V43.52h5.735c5.634,0,9.113,1.639,9.113,5.634a4.766,4.766,0,0,1-4.1,4.708C289.324,54.373,291.781,55.548,291.781,59.182ZM280.157,46.643V52.58h2.559c2.25,0,3.841-1.021,3.841-3.07,0-2.25-1.537-2.921-4.352-2.921h-1.995v.053Zm7.272,12.438c0-2.66-1.894-3.532-4.352-3.532h-2.921v6.809h2.458C285.429,62.358,287.43,61.847,287.43,59.081Z" transform="translate(-221.644 -43.057)"/><path class="a" d="M324.37,46.9h-5.735V65.534h-4.3V46.9H308.4V43.52h16.38Z" transform="translate(-236.826 -43.057)"/><path class="a" d="M360.457,54.12c0,7.272-3.735,11.47-9.624,11.47s-9.624-4.1-9.624-11.47c0-7.166,3.735-11.47,9.624-11.47S360.457,46.746,360.457,54.12Zm-14.848,0c0,5.937,1.995,8.294,5.171,8.294,3.277,0,5.171-2.357,5.171-8.294s-1.894-8.294-5.171-8.294C347.557,45.874,345.61,48.231,345.61,54.12Z" transform="translate(-252.181 -42.65)"/><path class="a" d="M405.216,65.576h-4.1l-.564-9.166c-.2-3.277-.356-6.655-.255-9.012l-4,15.821h-4l-4.3-15.821c.1,3.022.1,5.99-.1,9.113l-.564,9.113h-4.1l1.74-22.014h5.527l3.889,15.359L398.14,43.61h5.48Z" transform="translate(-271.857 -43.099)"/><path class="a" d="M441.4,60.506h-7.272l-1.383,5.118H428.39L435.2,43.61h5.171l6.809,22.014h-4.453Zm-.926-3.176-2.814-10.544L434.843,57.33Z" transform="translate(-292.982 -43.099)"/><path class="a" d="M478.05,46.9h-5.735V65.534h-4.3V46.9H462.08V43.52h16.38Z" transform="translate(-308.75 -43.057)"/><path class="a" d="M515.451,65.534h-4.2V56.165a56.926,56.926,0,0,1,.612-8.294l-7.474,17.662H499.22V43.52h4.2v9.469a43.311,43.311,0,0,1-.612,8.193l7.629-17.662h5.118V65.534Z" transform="translate(-326.132 -43.057)"/><path class="a" d="M551.09,53.7l6.347,11.927h-4.708l-5.171-9.932H544.9v9.932h-4.2V43.61h4.2v8.906h2.713l5.017-8.906h4.3Z" transform="translate(-345.545 -43.099)"/></g><g transform="translate(8.24 2.71)"><path class="a" d="M29.42,32.674h.718V29.86h1.537v-.718H30.138V23.769h1.537v-.718H30.138V20.13H29.42v2.921H27.68v.718h1.74v5.373H27.68v.718h1.74Z" transform="translate(-17.338 -10.863)"/><path class="a" d="M30.138,77.1H29.42v3.075H27.68v.713h1.74v5.378H27.68v.718h1.74v5.373H27.68v.718h1.74V98.55H27.68v.718h1.74v2.814h.718V99.268h1.537V98.55H30.138V93.076h1.537v-.718H30.138V86.984h1.537v-.718H30.138V80.888h1.537v-.713H30.138Z" transform="translate(-17.338 -37.525)"/><path class="a" d="M43.56,20.13h-.771v2.921H41.15v.718h1.639v5.373H41.15v.718h1.639v2.814h.771V29.86H45.2v-.718H43.56V23.769H45.2v-.718H43.56Z" transform="translate(-23.642 -10.863)"/><path class="a" d="M56.359,32.674h.718V29.86h1.639v-.718H57.077V23.769h1.639v-.718H57.077V20.13h-.718v2.921H54.72v.718h1.639v5.373H54.72v.718h1.639Z" transform="translate(-29.993 -10.863)"/><path class="a" d="M70.4,20.13h-.766v2.921H68v.718h1.639v5.373H68v.718h1.639v2.814H70.4V29.86h1.639v-.718H70.4V23.769h1.639v-.718H70.4Z" transform="translate(-36.208 -10.863)"/><path class="a" d="M83.209,32.674h.718V29.86h1.639v-.718H83.927V23.769h1.639v-.718H83.927V20.13h-.718v2.921H81.57v.718h1.639v5.373H81.57v.718h1.639Z" transform="translate(-42.559 -10.863)"/><path class="a" d="M96.489,32.674h.766V29.86h1.639v-.718H97.255V23.769h1.639v-.718H97.255V20.13h-.766v2.921H94.85v.718h1.639v5.373H94.85v.718h1.639Z" transform="translate(-48.774 -10.863)"/><path class="a" d="M110.777,20.13h-.718v2.921H108.42v.718h1.639v5.373H108.42v.718h1.639v2.814h.718V29.86h1.639v-.718h-1.639V23.769h1.639v-.718h-1.639Z" transform="translate(-55.125 -10.863)"/><path class="a" d="M124.247,77.1h-.718v3.075H121.89v.713h1.639v5.378H121.89v.718h1.639v5.373H121.89v.718h1.639V98.55H121.89v.718h1.639v2.814h.718V99.268h1.639V98.55h-1.639V93.076h1.639v-.718h-1.639V86.984h1.639v-.718h-1.639V80.888h1.639v-.713h-1.639Z" transform="translate(-61.429 -37.525)"/><path class="a" d="M124.247,20.13h-.718v2.921H121.89v.718h1.639v5.373H121.89v.718h1.639v2.814h.718V29.86h1.639v-.718h-1.639V23.769h1.639v-.718h-1.639Z" transform="translate(-61.429 -10.863)"/><path class="a" d="M30.239,53.81,27.68,60.619H28.7l.718-1.995h2.559l.718,1.995h1.021L31.26,53.81Zm-.458,4.1.718-2.2c.1-.356.255-1.021.255-1.021A7.089,7.089,0,0,1,31.01,55.7l.718,2.2Z" transform="translate(-17.338 -26.625)"/><path class="a" d="M40.392,58.625a2.781,2.781,0,0,0-.255.92,6.371,6.371,0,0,1-.255-.92l-1.74-4.815H37.12l2.559,6.809H40.7l2.458-6.809H42.137Z" transform="translate(-21.756 -26.625)"/><path class="a" d="M50.1,54.629h2.357v5.99h.92v-5.99h2.357V53.81H50.1Z" transform="translate(-27.831 -26.625)"/><path class="a" d="M64.8,53.62A3.4,3.4,0,0,0,61.27,57.1,3.533,3.533,0,1,0,64.8,53.62Zm0,6.2A2.6,2.6,0,0,1,62.244,57.1a2.526,2.526,0,0,1,2.559-2.66,2.59,2.59,0,0,1,2.559,2.66A2.641,2.641,0,0,1,64.8,59.818Z" transform="translate(-33.059 -26.536)"/><path class="a" d="M81.8,53.81l-1.537,3.735a4.929,4.929,0,0,0-.356.92s-.2-.564-.356-.92L78.012,53.81H76.991l-.511,6.809H77.5l.356-4.3V55.3s.2.612.356,1.021l1.383,3.07h.819l1.383-3.07a4.914,4.914,0,0,0,.356-1.021v1.021l.356,4.3h.92l-.564-6.809Z" transform="translate(-40.177 -26.625)"/><path class="a" d="M92.989,53.81,90.43,60.619h1.021l.718-1.995h2.559l.718,1.995h1.021L94.01,53.81Zm-.463,4.1.718-2.2c.1-.356.255-1.021.255-1.021a7.09,7.09,0,0,1,.255,1.021l.718,2.2Z" transform="translate(-46.706 -26.625)"/><path class="a" d="M101.01,54.629h2.4v5.99h.872v-5.99h2.4V53.81H101.01Z" transform="translate(-51.657 -26.625)"/><rect class="a" width="1.021" height="6.809" transform="translate(56.008 27.185)"/><path class="a" d="M123.848,59.711l-.564-.718a3.139,3.139,0,0,1-2.1.92,2.6,2.6,0,0,1-2.559-2.713,2.556,2.556,0,0,1,2.559-2.66,3.164,3.164,0,0,1,1.995.718l.463-.718a3.59,3.59,0,0,0-5.99,2.713,3.415,3.415,0,0,0,3.532,3.532A3.553,3.553,0,0,0,123.848,59.711Z" transform="translate(-59.445 -26.536)"/><path class="a" d="M61.178,2.71H30.153A21.939,21.939,0,0,0,8.24,24.623V55.648A21.963,21.963,0,0,0,25.594,77.1v3.889H66.243v-4A21.953,21.953,0,0,0,83.086,55.7V24.676A21.946,21.946,0,0,0,61.178,2.71ZM26.567,80.428h-.356V49.967h.356V80.428Zm.617,0h-.309V49.914h.309V80.428Zm.564,0H27.44V49.967h.309V80.428Zm.612,0h-.309V49.967h.309V80.428Zm.564,0h-.309V49.967h.309V80.428Zm.612,0h-.3V49.967h.309V80.428Zm.564,0h-.309V49.967H30.1V80.428Zm.617,0h-.309V49.967h.309V80.428Zm.564,0h-.309V49.967h.309V80.428Zm.612,0h-.309V49.967h.309V80.428Zm.564,0h-.309V49.967h.309V80.428Zm.612,0h-.309V49.967h.309V80.428Zm.564,0h-.3V49.967h.309V80.428Zm.617,0H33.94V49.967h.309V80.428Zm.564,0H34.5V49.967h.309V80.428Zm.612,0h-.309V49.967h.309V80.428Zm.564,0H35.68V49.967h.309V80.428ZM36.3,57.9V49.967h.309v8.193ZM65.578,80.322l-28.823.1V59.282L51.7,71.209l7.32,5.836V50.015h6.554V80.322ZM36.861,58.362V49.914h.309v8.65Zm.612.511V49.967h.309v9.166Zm.564.463V49.967h.309V59.59Zm.612.458V49.967h.309V60.053Zm.564.463V49.967h.309V60.511Zm.617.463v-10.8h.309v11.06Zm.564.511V49.967H40.7V61.484Zm.612.458V49.967h.309v11.98Zm1.484-11.72v12.9l-.309-.255V49.967Zm-.612,0V62.4l-.309-.255V49.967h.309Zm.867,13.156V49.967h.309V63.378Zm.617.463V49.967h.309V63.841Zm.564.458V49.967h.309V64.3Zm.612.463V49.967h.309V64.761Zm.564.458v-15h.309V65.219Zm.612.516V49.967h.309V65.735Zm.564.458V49.967h.309V66.2Zm.617.463V49.967H47.2V66.655Zm.564.458V49.967h.309V67.118Zm.612.463V49.914h.309V67.522Zm1.484-17.354V68.549l-.309-.255V49.967Zm-.612,0V68.092l-.309-.255V49.967Zm.867,18.785V49.967h.309V69.012Zm.617.463V49.967h.309v19.5Zm.564.463V49.914H51.3V69.932Zm1.176.974V49.967h.309V70.906Zm.612.458V49.967h.309v21.4l-.2-.154Zm5.634.1v4.453l-.356-.255V50.015h.356Zm-.617,0v3.942l-.309-.255V49.967h.309Zm-.612,0v3.479l-.309-.255V49.967h.309Zm-.872,0V49.967h.309V74.236l-.309-.255Zm-.3-21.242V73.725L55.7,73.47v-23.5Zm-.564,21.242v2.048L55.135,73V49.967h.309Zm-.617,0v1.585l-.309-.255V49.967h.309Zm-.564,0v1.128l-.309-.255V49.967h.309Zm-.612,0v.612l-.309-.255V49.914h.309Zm-1.74-.766-.309-.255V49.967h.309ZM77.25,64.3a7.035,7.035,0,0,1-7.012,6.911h-4V49.35H63.886V46.126h1.639v-.718H63.886v-3.07h-.718v3.07H61.529v.718h1.639V49.35H56.72V46.126h1.639v-.718H56.72v-3.07H56v3.07H54.364v.718H56v3.229H49.608V46.131h1.639v-.718H49.608V42.338h-.718v3.07H47.251v.718h1.639V49.35H42.436V46.126h1.639v-.718H42.436v-3.07h-.718v3.07H40.085v.718h1.639V49.35h-6.4V46.126h1.639v-.718H35.324v-3.07h-.718v3.07H32.967v.718h1.639V49.35H28.158V46.126H29.8v-.718H28.158v-3.07H27.44v3.07H25.8v.718H27.44V49.35H25.6V71.209H21.04A6.88,6.88,0,0,1,14.129,64.3V15A6.88,6.88,0,0,1,21.04,8.088h49.3A6.88,6.88,0,0,1,77.25,15Z" transform="translate(-8.24 -2.71)"/></g></g></svg>