<svg xmlns="http://www.w3.org/2000/svg" xmlns:xlink="http://www.w3.org/1999/xlink" width="329.8" height="86.1" viewBox="0 0 329.8 86.1"><defs><style>.a{fill:#fff;}.b{fill:#2b53a0;}.c{clip-path:url(#a);}</style><clipPath id="a"><rect width="42.1" height="34.2" transform="translate(22.4 53)"/></clipPath></defs><g transform="translate(-2.6 -1.4)"><g transform="translate(0 8)"><path class="a" d="M112.7,38.7h-8.6V49.5H99.5V25.3h4.6V35h8.6V25.3h4.7V49.5h-4.7Z"/><path class="a" d="M122.7,36.8h10.6v3.6H122.7V36.8Z"/><path class="a" d="M149.5,43.9h-8L140,49.5h-4.8l7.5-24.2h5.7l7.5,24.2H151Zm-1-3.5-3.1-11.6-3.1,11.6Z"/><path class="a" d="M176.6,42.5c0,5.3-4.2,7-10.1,7h-7.3V25.3h6.3c6.2,0,10,1.8,10,6.2a5.3,5.3,0,0,1-4.5,5.2C173.9,37.2,176.6,38.5,176.6,42.5ZM163.8,28.7v6.5h2.8c2.5,0,4.2-1.1,4.2-3.4,0-2.5-1.7-3.2-4.8-3.2h-2.2Zm8,13.7c0-2.9-2.1-3.9-4.8-3.9h-3.2V46h2.7C169.6,46,171.8,45.4,171.8,42.4Z"/><path class="a" d="M195.7,29h-6.3V49.5h-4.7V29h-6.5V25.3h18Z"/><path class="a" d="M218.5,37.4c0,8-4.1,12.6-10.6,12.6s-10.6-4.5-10.6-12.6c0-7.9,4.1-12.6,10.6-12.6S218.5,29.3,218.5,37.4Zm-16.3,0c0,6.5,2.2,9.1,5.7,9.1,3.6,0,5.7-2.6,5.7-9.1s-2.1-9.1-5.7-9.1S202.2,30.9,202.2,37.4Z"/><path class="a" d="M246.1,49.5h-4.5L241,39.4c-.2-3.6-.4-7.3-.3-9.9l-4.4,17.4h-4.4l-4.7-17.4c.1,3.3.1,6.6-.1,10l-.6,10H222l1.9-24.2h6l4.3,16.9,4.1-16.9h6Z"/><path class="a" d="M262.6,43.9h-8l-1.5,5.6h-4.8l7.5-24.2h5.7L269,49.5h-4.9Zm-1-3.5-3.1-11.6-3.1,11.6Z"/><path class="a" d="M285.6,29h-6.3V49.5h-4.7V29h-6.5V25.3h18Z"/><path class="a" d="M307.6,49.5H303V39.2a58.68,58.68,0,0,1,.7-9.1l-8.2,19.4h-5.7V25.3h4.6V35.7a46.278,46.278,0,0,1-.7,9l8.4-19.4h5.6V49.5Z"/><path class="a" d="M325.4,36.4l7,13.1h-5.2l-5.7-10.9h-2.9V49.5H314V25.3h4.6v9.8h3l5.5-9.8h4.7Z"/></g><path class="a" d="M60.8,83.5H26.7A23.964,23.964,0,0,1,2.8,59.6V25.5A23.964,23.964,0,0,1,26.7,1.6H60.8A23.964,23.964,0,0,1,84.7,25.5V59.6A23.9,23.9,0,0,1,60.8,83.5Z"/><path class="a" d="M60.8,83.7H26.7A24.113,24.113,0,0,1,2.6,59.6V25.5A24.113,24.113,0,0,1,26.7,1.4H60.8A24.113,24.113,0,0,1,84.9,25.5V59.6A24.113,24.113,0,0,1,60.8,83.7ZM26.7,1.7A23.857,23.857,0,0,0,2.9,25.5V59.6A23.857,23.857,0,0,0,26.7,83.4H60.8A23.857,23.857,0,0,0,84.6,59.6V25.5A23.857,23.857,0,0,0,60.8,1.7H26.7Z"/><path class="b" d="M70.8,76.7H16.7a7.6,7.6,0,0,1-7.6-7.6V14.9a7.6,7.6,0,0,1,7.6-7.6H70.9a7.6,7.6,0,0,1,7.6,7.6V69.1A7.748,7.748,0,0,1,70.8,76.7Z"/><rect class="a" width="0.8" height="60.8" transform="translate(15.9 11.6)"/><rect class="a" width="4.4" height="0.8" transform="translate(14 48.3)"/><rect class="a" width="4.4" height="0.8" transform="translate(14 55)"/><rect class="a" width="4.4" height="0.8" transform="translate(14 61.7)"/><rect class="a" width="4.4" height="0.8" transform="translate(14 41.6)"/><rect class="a" width="4.4" height="0.8" transform="translate(14 34.9)"/><rect class="a" width="4.4" height="0.8" transform="translate(14 28.2)"/><rect class="a" width="4.4" height="0.8" transform="translate(14 21.5)"/><rect class="a" width="4.4" height="0.8" transform="translate(14 14.8)"/><rect class="a" width="4.4" height="0.8" transform="translate(14 68.5)"/><rect class="a" width="0.8" height="60.8" transform="translate(23.7 11.6)"/><rect class="a" width="4.4" height="0.8" transform="translate(21.9 48.3)"/><rect class="a" width="4.4" height="0.8" transform="translate(21.9 61.7)"/><rect class="a" width="4.4" height="0.8" transform="translate(21.9 68.5)"/><rect class="a" width="4.4" height="0.8" transform="translate(21.9 55)"/><rect class="a" width="4.4" height="0.8" transform="translate(21.9 41.6)"/><rect class="a" width="4.4" height="0.8" transform="translate(21.9 34.9)"/><rect class="a" width="4.4" height="0.8" transform="translate(21.9 28.2)"/><rect class="a" width="4.4" height="0.8" transform="translate(21.9 21.5)"/><rect class="a" width="4.4" height="0.8" transform="translate(21.9 14.8)"/><rect class="a" width="0.8" height="60.8" transform="translate(31.6 11.6)"/><rect class="a" width="4.4" height="0.8" transform="translate(29.8 48.3)"/><rect class="a" width="4.4" height="0.8" transform="translate(29.8 55)"/><rect class="a" width="4.4" height="0.8" transform="translate(29.8 61.7)"/><rect class="a" width="4.4" height="0.8" transform="translate(29.8 41.6)"/><rect class="a" width="4.4" height="0.8" transform="translate(29.8 34.9)"/><rect class="a" width="4.4" height="0.8" transform="translate(29.8 28.2)"/><rect class="a" width="4.4" height="0.8" transform="translate(29.8 21.5)"/><rect class="a" width="4.4" height="0.8" transform="translate(29.8 14.8)"/><rect class="a" width="4.4" height="0.8" transform="translate(29.8 68.5)"/><rect class="a" width="0.8" height="60.8" transform="translate(39.4 11.6)"/><rect class="a" width="4.4" height="0.8" transform="translate(37.6 48.3)"/><rect class="a" width="4.4" height="0.8" transform="translate(37.6 55)"/><rect class="a" width="4.4" height="0.8" transform="translate(37.6 61.7)"/><rect class="a" width="4.4" height="0.8" transform="translate(37.6 41.6)"/><rect class="a" width="4.4" height="0.8" transform="translate(37.6 34.9)"/><rect class="a" width="4.4" height="0.8" transform="translate(37.6 28.2)"/><rect class="a" width="4.4" height="0.8" transform="translate(37.6 21.5)"/><rect class="a" width="4.4" height="0.8" transform="translate(37.6 14.8)"/><rect class="a" width="4.4" height="0.8" transform="translate(37.6 68.5)"/><rect class="a" width="0.8" height="60.8" transform="translate(47.3 11.6)"/><rect class="a" width="4.4" height="0.8" transform="translate(45.5 48.3)"/><rect class="a" width="4.4" height="0.8" transform="translate(45.5 55)"/><rect class="a" width="4.4" height="0.8" transform="translate(45.5 61.7)"/><rect class="a" width="4.4" height="0.8" transform="translate(45.5 41.6)"/><rect class="a" width="4.4" height="0.8" transform="translate(45.5 34.9)"/><rect class="a" width="4.4" height="0.8" transform="translate(45.5 28.2)"/><rect class="a" width="4.4" height="0.8" transform="translate(45.5 21.5)"/><rect class="a" width="4.4" height="0.8" transform="translate(45.5 14.8)"/><rect class="a" width="4.4" height="0.8" transform="translate(45.5 68.5)"/><rect class="a" width="0.8" height="60.8" transform="translate(55.1 11.6)"/><rect class="a" width="4.4" height="0.8" transform="translate(53.3 48.3)"/><rect class="a" width="4.4" height="0.8" transform="translate(53.3 55)"/><rect class="a" width="4.4" height="0.8" transform="translate(53.3 61.7)"/><rect class="a" width="4.4" height="0.8" transform="translate(53.3 41.6)"/><rect class="a" width="4.4" height="0.8" transform="translate(53.3 34.9)"/><rect class="a" width="4.4" height="0.8" transform="translate(53.3 28.2)"/><rect class="a" width="4.4" height="0.8" transform="translate(53.3 21.5)"/><rect class="a" width="4.4" height="0.8" transform="translate(53.3 14.8)"/><rect class="a" width="4.4" height="0.8" transform="translate(53.3 68.5)"/><rect class="a" width="0.8" height="60.8" transform="translate(63 11.6)"/><rect class="a" width="4.4" height="0.8" transform="translate(61.2 48.3)"/><rect class="a" width="4.4" height="0.8" transform="translate(61.2 61.7)"/><rect class="a" width="4.4" height="0.8" transform="translate(61.2 55)"/><rect class="a" width="4.4" height="0.8" transform="translate(61.2 68.5)"/><rect class="a" width="4.4" height="0.8" transform="translate(61.2 41.6)"/><rect class="a" width="4.4" height="0.8" transform="translate(61.2 34.9)"/><rect class="a" width="4.4" height="0.8" transform="translate(61.2 28.2)"/><rect class="a" width="4.4" height="0.8" transform="translate(61.2 21.5)"/><rect class="a" width="4.4" height="0.8" transform="translate(61.2 14.8)"/><rect class="a" width="0.8" height="60.8" transform="translate(70.9 11.6)"/><rect class="a" width="4.4" height="0.8" transform="translate(69.1 48.3)"/><rect class="a" width="4.4" height="0.8" transform="translate(69.1 55)"/><rect class="a" width="4.4" height="0.8" transform="translate(69.1 61.7)"/><rect class="a" width="4.4" height="0.8" transform="translate(69.1 41.6)"/><rect class="a" width="4.4" height="0.8" transform="translate(69.1 34.9)"/><rect class="a" width="4.4" height="0.8" transform="translate(69.1 28.2)"/><rect class="a" width="4.4" height="0.8" transform="translate(69.1 21.5)"/><rect class="a" width="4.4" height="0.8" transform="translate(69.1 14.8)"/><rect class="a" width="4.4" height="0.8" transform="translate(69.1 68.5)"/><rect class="b" width="63.8" height="19.5" transform="translate(11.8 25.4)"/><path class="a" d="M16.8,31.3h1.1l2.7,7.5H19.5l-.8-2.2H15.9l-.8,2.2H14Zm1.7,4.5-.8-2.4c-.1-.4-.3-1.1-.3-1.1h0s-.2.7-.3,1.1l-.8,2.4Z"/><path class="a" d="M19.5,31.3h1.1l1.9,5.3c.1.4.3,1,.3,1h0a4.284,4.284,0,0,1,.3-1L25,31.3h1.1l-2.7,7.5H22.3Z"/><path class="a" d="M29.7,32.2H27.1v-.9h6.2v.9H30.7v6.6h-1V32.2Z"/><path class="a" d="M37.5,31.2A3.85,3.85,0,1,1,33.6,35,3.76,3.76,0,0,1,37.5,31.2Zm0,6.8a2.954,2.954,0,0,0,0-5.9A2.759,2.759,0,0,0,34.7,35,2.845,2.845,0,0,0,37.5,38Z"/><path class="a" d="M43.1,31.3h1.1l1.7,4.1a9.417,9.417,0,0,1,.4,1h0a9.417,9.417,0,0,1,.4-1l1.7-4.1h1.1l.6,7.5h-1l-.4-4.7V33h0a8.2,8.2,0,0,1-.4,1.1l-1.5,3.4h-.9l-1.5-3.4A8.2,8.2,0,0,1,44,33h0v1.1l-.4,4.7H42.5Z"/><path class="a" d="M53.5,31.3h1.1l2.7,7.5H56.2l-.8-2.2H52.6l-.8,2.2H50.7Zm1.7,4.5-.8-2.4c-.1-.4-.3-1.1-.3-1.1h0s-.2.7-.3,1.1L53,35.8Z"/><path class="a" d="M59.5,32.2H56.9v-.9h6.2v.9H60.5v6.6h-1V32.2Z"/><path class="a" d="M64.2,31.3h1.1v7.5H64.2Z"/><path class="a" d="M70.5,31.2a3.775,3.775,0,0,1,2.7,1l-.5.8a3.5,3.5,0,0,0-2.2-.8,2.758,2.758,0,0,0-2.8,2.9,2.842,2.842,0,0,0,2.8,3,3.445,3.445,0,0,0,2.3-1l.6.8a4.111,4.111,0,0,1-2.9,1.2,3.783,3.783,0,0,1-3.9-3.9A3.866,3.866,0,0,1,70.5,31.2Z"/><rect class="b" width="43.1" height="34.2" transform="translate(22.1 53)"/><path class="a" d="M65.5,87.5H21.7V52.7H65.4V87.5Zm-43.1-.6H64.8V53.4H22.4Z"/><g class="c"><rect class="a" width="0.3" height="38.3" transform="translate(22.8 51.4)"/><rect class="a" width="0.3" height="38.3" transform="translate(23.5 51.4)"/><rect class="a" width="0.3" height="38.3" transform="translate(24.1 51.4)"/><rect class="a" width="0.3" height="38.3" transform="translate(24.8 51.4)"/><rect class="a" width="0.3" height="38.3" transform="translate(25.4 51.4)"/><rect class="a" width="0.3" height="38.3" transform="translate(26.1 51.4)"/><rect class="a" width="0.3" height="38.3" transform="translate(26.7 51.4)"/><rect class="a" width="0.3" height="38.3" transform="translate(27.4 51.4)"/><rect class="a" width="0.3" height="38.3" transform="translate(28 51.4)"/><rect class="a" width="0.3" height="38.3" transform="translate(28.7 51.4)"/><rect class="a" width="0.3" height="38.3" transform="translate(29.3 51.4)"/><rect class="a" width="0.3" height="38.3" transform="translate(30 51.4)"/><rect class="a" width="0.3" height="38.3" transform="translate(30.6 51.4)"/><rect class="a" width="0.3" height="38.3" transform="translate(31.2 51.4)"/><rect class="a" width="0.3" height="38.3" transform="translate(31.9 51.4)"/><rect class="a" width="0.3" height="38.3" transform="translate(32.5 51.4)"/><rect class="a" width="0.3" height="38.3" transform="translate(33.2 51.4)"/><rect class="a" width="0.3" height="38.3" transform="translate(33.8 51.4)"/><rect class="a" width="0.3" height="38.3" transform="translate(34.5 51.4)"/><rect class="a" width="0.3" height="38.3" transform="translate(35.1 51.4)"/><rect class="a" width="0.3" height="38.3" transform="translate(35.8 51.4)"/><rect class="a" width="0.3" height="38.3" transform="translate(36.4 51.4)"/><rect class="a" width="0.3" height="38.3" transform="translate(37.1 51.4)"/><rect class="a" width="0.3" height="38.3" transform="translate(37.7 51.4)"/><rect class="a" width="0.3" height="38.3" transform="translate(38.3 51.4)"/><rect class="a" width="0.3" height="38.3" transform="translate(39 51.4)"/><rect class="a" width="0.3" height="38.3" transform="translate(39.6 51.4)"/><rect class="a" width="0.3" height="38.3" transform="translate(40.3 51.4)"/><rect class="a" width="0.3" height="38.3" transform="translate(40.9 51.4)"/><rect class="a" width="0.3" height="38.3" transform="translate(41.6 51.4)"/><rect class="a" width="0.3" height="38.3" transform="translate(42.2 51.4)"/><rect class="a" width="0.3" height="38.3" transform="translate(42.9 51.4)"/><rect class="a" width="0.3" height="38.3" transform="translate(43.5 51.4)"/><rect class="a" width="0.3" height="38.3" transform="translate(44.2 51.4)"/><rect class="a" width="0.3" height="38.3" transform="translate(44.8 51.4)"/><rect class="a" width="0.3" height="38.3" transform="translate(45.5 51.4)"/><rect class="a" width="0.3" height="38.3" transform="translate(46.1 51.4)"/><rect class="a" width="0.3" height="38.3" transform="translate(46.7 51.4)"/><rect class="a" width="0.3" height="38.3" transform="translate(56.4 51.4)"/><rect class="a" width="0.3" height="38.3" transform="translate(57.1 51.9)"/><rect class="a" width="0.3" height="38.3" transform="translate(47.4 51.4)"/><rect class="a" width="0.3" height="38.3" transform="translate(48 51.4)"/><rect class="a" width="0.3" height="38.3" transform="translate(48.7 51.4)"/><rect class="a" width="0.3" height="38.3" transform="translate(49.3 51.4)"/><rect class="a" width="0.3" height="38.3" transform="translate(50 51.4)"/><rect class="a" width="0.3" height="38.3" transform="translate(50.6 51.4)"/><rect class="a" width="0.3" height="38.3" transform="translate(51.3 51.4)"/><rect class="a" width="0.3" height="38.3" transform="translate(51.9 51.4)"/><rect class="a" width="0.3" height="38.3" transform="translate(52.6 51.4)"/><rect class="a" width="0.3" height="38.3" transform="translate(53.2 51.4)"/><rect class="a" width="0.3" height="38.3" transform="translate(53.8 51.4)"/><rect class="a" width="0.3" height="38.3" transform="translate(54.5 51.4)"/><rect class="a" width="0.3" height="38.3" transform="translate(55.1 51.4)"/><rect class="a" width="0.3" height="38.3" transform="translate(55.8 51.4)"/><path class="b" d="M33.4,87.2V62.6L57.9,82.2V53h7.8V87.2Z"/><path class="a" d="M33,87.5V61.9L57.5,81.6v-29H66V87.4h-.3Zm.7-24.2V86.9l31.7-.1V53.3H58.2V82.9Z"/></g></g></svg>