<?xml version="1.0" encoding="utf-8"?>
<!-- Generator: Adobe Illustrator 18.1.1, SVG Export Plug-In . SVG Version: 6.00 Build 0)  -->
<svg version="1.1" id="Layer_1" xmlns="http://www.w3.org/2000/svg" xmlns:xlink="http://www.w3.org/1999/xlink" x="0px" y="0px"
	 viewBox="0 0 450 800" enable-background="new 0 0 450 800" xml:space="preserve">
<g>
	<polygon fill="#FFFFFF" points="172.8,731.2 170.3,731.2 170.3,738.8 162.7,738.8 162.7,741.3 170.3,741.3 170.3,748.8 
		172.8,748.8 172.8,741.3 180.3,741.3 180.3,738.8 172.8,738.8 	"/>
	<polygon fill="#FFFFFF" points="172.8,779.6 170.3,779.6 170.3,787.2 162.7,787.2 162.7,789.7 170.3,789.7 170.3,797.3 
		172.8,797.3 172.8,789.7 180.3,789.7 180.3,787.2 172.8,787.2 	"/>
	<polygon fill="#FFFFFF" points="226.3,682.7 223.8,682.7 223.8,690.3 216.2,690.3 216.2,692.8 223.8,692.8 223.8,700.4 
		226.3,700.4 226.3,692.8 233.8,692.8 233.8,690.3 226.3,690.3 	"/>
	<polygon fill="#FFFFFF" points="226.3,731.2 223.8,731.2 223.8,738.8 216.2,738.8 216.2,741.3 223.8,741.3 223.8,748.8 
		226.3,748.8 226.3,741.3 233.8,741.3 233.8,738.8 226.3,738.8 	"/>
	<polygon fill="#FFFFFF" points="120.1,731.2 117.6,731.2 117.6,738.8 110,738.8 110,741.3 117.6,741.3 117.6,748.8 120.1,748.8 
		120.1,741.3 127.6,741.3 127.6,738.8 120.1,738.8 	"/>
	<polygon fill="#FFFFFF" points="65.8,731.2 63.3,731.2 63.3,738.8 55.7,738.8 55.7,741.3 63.3,741.3 63.3,748.8 65.8,748.8 
		65.8,741.3 73.3,741.3 73.3,738.8 65.8,738.8 	"/>
	<polygon fill="#FFFFFF" points="13.1,731.2 10.6,731.2 10.6,738.8 3,738.8 3,741.3 10.6,741.3 10.6,748.8 13.1,748.8 13.1,741.3 
		20.6,741.3 20.6,738.8 13.1,738.8 	"/>
	<polygon fill="#FFFFFF" points="226.3,779.6 223.8,779.6 223.8,787.2 216.2,787.2 216.2,789.7 223.8,789.7 223.8,797.3 
		226.3,797.3 226.3,789.7 233.8,789.7 233.8,787.2 226.3,787.2 	"/>
	<polygon fill="#FFFFFF" points="279.7,682.7 277.2,682.7 277.2,690.3 269.7,690.3 269.7,692.8 277.2,692.8 277.2,700.4 
		279.7,700.4 279.7,692.8 287.3,692.8 287.3,690.3 279.7,690.3 	"/>
	<polygon fill="#FFFFFF" points="279.7,731.2 277.2,731.2 277.2,738.8 269.7,738.8 269.7,741.3 277.2,741.3 277.2,748.8 
		279.7,748.8 279.7,741.3 287.3,741.3 287.3,738.8 279.7,738.8 	"/>
	<polygon fill="#FFFFFF" points="279.7,779.6 277.2,779.6 277.2,787.2 269.7,787.2 269.7,789.7 277.2,789.7 277.2,797.3 
		279.7,797.3 279.7,789.7 287.3,789.7 287.3,787.2 279.7,787.2 	"/>
	<polygon fill="#FFFFFF" points="332.7,731.2 330.2,731.2 330.2,738.8 322.7,738.8 322.7,741.3 330.2,741.3 330.2,748.8 
		332.7,748.8 332.7,741.3 340.3,741.3 340.3,738.8 332.7,738.8 	"/>
	<polygon fill="#FFFFFF" points="332.7,779.6 330.2,779.6 330.2,787.2 322.7,787.2 322.7,789.7 330.2,789.7 330.2,797.3 
		332.7,797.3 332.7,789.7 340.3,789.7 340.3,787.2 332.7,787.2 	"/>
	<polygon fill="#FFFFFF" points="276.8,21.1 279.3,21.1 279.3,13.5 286.9,13.5 286.9,11 279.3,11 279.3,3.4 276.8,3.4 276.8,11 
		269.2,11 269.2,13.5 276.8,13.5 	"/>
	<polygon fill="#FFFFFF" points="276.8,69.6 279.3,69.6 279.3,62 286.9,62 286.9,59.5 279.3,59.5 279.3,51.9 276.8,51.9 276.8,59.5 
		269.2,59.5 269.2,62 276.8,62 	"/>
	<polygon fill="#FFFFFF" points="276.8,118 279.3,118 279.3,110.4 286.9,110.4 286.9,107.9 279.3,107.9 279.3,100.4 276.8,100.4 
		276.8,107.9 269.2,107.9 269.2,110.4 276.8,110.4 	"/>
	<polygon fill="#FFFFFF" points="332.8,3.4 330.3,3.4 330.3,11 322.8,11 322.8,13.5 330.3,13.5 330.3,21.1 332.8,21.1 332.8,13.5 
		340.5,13.5 340.5,11 332.8,11 	"/>
	<polygon fill="#FFFFFF" points="332.8,51.9 330.3,51.9 330.3,59.5 322.7,59.5 322.7,62 330.3,62 330.3,69.6 332.8,69.6 332.8,62 
		340.4,62 340.4,59.5 332.8,59.5 	"/>
	<polygon fill="#FFFFFF" points="332.8,100.4 330.3,100.4 330.3,107.9 322.7,107.9 322.7,110.4 330.3,110.4 330.3,118 332.8,118 
		332.8,110.4 340.4,110.4 340.4,107.9 332.8,107.9 	"/>
	<polygon fill="#FFFFFF" points="332.8,148.8 330.3,148.8 330.3,156.4 322.7,156.4 322.7,158.9 330.3,158.9 330.3,166.5 
		332.8,166.5 332.8,158.9 340.4,158.9 340.4,156.4 332.8,156.4 	"/>
	<polygon fill="#FFFFFF" points="332.8,197.3 330.3,197.3 330.3,204.9 322.7,204.9 322.7,207.4 330.3,207.4 330.3,215 332.8,215 
		332.8,207.4 340.4,207.4 340.4,204.9 332.8,204.9 	"/>
	<polygon fill="#FFFFFF" points="332.8,245.8 330.3,245.8 330.3,253.3 322.7,253.3 322.7,255.8 330.3,255.8 330.3,263.4 
		332.8,263.4 332.8,255.8 340.4,255.8 340.4,253.3 332.8,253.3 	"/>
	<polygon fill="#FFFFFF" points="332.8,294.2 330.3,294.2 330.3,301.8 322.7,301.8 322.7,304.3 330.3,304.3 330.3,311.9 
		332.8,311.9 332.8,304.3 340.4,304.3 340.4,301.8 332.8,301.8 	"/>
	<polygon fill="#FFFFFF" points="332.8,342.7 330.3,342.7 330.3,350.3 322.7,350.3 322.7,352.8 330.3,352.8 330.3,360.4 
		332.8,360.4 332.8,352.8 340.4,352.8 340.4,350.3 332.8,350.3 	"/>
	<polygon fill="#FFFFFF" points="332.8,391.1 330.3,391.1 330.3,398.7 322.7,398.7 322.7,401.2 330.3,401.2 330.3,408.8 
		332.8,408.8 332.8,401.2 340.4,401.2 340.4,398.7 332.8,398.7 	"/>
	<polygon fill="#FFFFFF" points="332.8,439.6 330.3,439.6 330.3,447.2 322.7,447.2 322.7,449.7 330.3,449.7 330.3,457.3 
		332.8,457.3 332.8,449.7 340.4,449.7 340.4,447.2 332.8,447.2 	"/>
	<polygon fill="#FFFFFF" points="332.8,488.1 330.3,488.1 330.3,495.7 322.7,495.7 322.7,498.2 330.3,498.2 330.3,505.7 
		332.8,505.7 332.8,498.2 340.4,498.2 340.4,495.7 332.8,495.7 	"/>
	<polygon fill="#FFFFFF" points="332.8,536.5 330.3,536.5 330.3,544.1 322.7,544.1 322.7,546.6 330.3,546.6 330.3,554.2 
		332.8,554.2 332.8,546.6 340.4,546.6 340.4,544.1 332.8,544.1 	"/>
	<polygon fill="#FFFFFF" points="332.8,585 330.3,585 330.3,592.6 322.7,592.6 322.7,595.1 330.3,595.1 330.3,602.7 332.8,602.7 
		332.8,595.1 340.4,595.1 340.4,592.6 332.8,592.6 	"/>
	<polygon fill="#FFFFFF" points="332.8,633.5 330.3,633.5 330.3,641.1 322.7,641.1 322.7,643.6 330.3,643.6 330.3,651.1 
		332.8,651.1 332.8,643.6 340.4,643.6 340.4,641.1 332.8,641.1 	"/>
	<polygon fill="#FFFFFF" points="332.8,681.9 330.3,681.9 330.3,689.5 322.7,689.5 322.7,692 330.3,692 330.3,699.6 332.8,699.6 
		332.8,692 340.4,692 340.4,689.5 332.8,689.5 	"/>
	<polygon fill="#FFFFFF" points="386.3,3.4 383.8,3.4 383.8,11 376.2,11 376.2,13.5 383.8,13.5 383.8,21.1 386.3,21.1 386.3,13.5 
		393.9,13.5 393.9,11 386.3,11 	"/>
	<polygon fill="#FFFFFF" points="386.3,51.9 383.8,51.9 383.8,59.5 376.2,59.5 376.2,62 383.8,62 383.8,69.6 386.3,69.6 386.3,62 
		393.9,62 393.9,59.5 386.3,59.5 	"/>
	<polygon fill="#FFFFFF" points="386.3,100.4 383.8,100.4 383.8,107.9 376.2,107.9 376.2,110.4 383.8,110.4 383.8,118 386.3,118 
		386.3,110.4 393.9,110.4 393.9,107.9 386.3,107.9 	"/>
	<polygon fill="#FFFFFF" points="386.3,148.8 383.8,148.8 383.8,156.4 376.2,156.4 376.2,158.9 383.8,158.9 383.8,166.5 
		386.3,166.5 386.3,158.9 393.9,158.9 393.9,156.4 386.3,156.4 	"/>
	<polygon fill="#FFFFFF" points="386.3,197.3 383.8,197.3 383.8,204.9 376.2,204.9 376.2,207.4 383.8,207.4 383.8,215 386.3,215 
		386.3,207.4 393.9,207.4 393.9,204.9 386.3,204.9 	"/>
	<polygon fill="#FFFFFF" points="386.3,245.8 383.8,245.8 383.8,253.3 376.2,253.3 376.2,255.8 383.8,255.8 383.8,263.4 
		386.3,263.4 386.3,255.8 393.9,255.8 393.9,253.3 386.3,253.3 	"/>
	<polygon fill="#FFFFFF" points="386.3,294.2 383.8,294.2 383.8,301.8 376.2,301.8 376.2,304.3 383.8,304.3 383.8,311.9 
		386.3,311.9 386.3,304.3 393.9,304.3 393.9,301.8 386.3,301.8 	"/>
	<polygon fill="#FFFFFF" points="386.3,342.7 383.8,342.7 383.8,350.3 376.2,350.3 376.2,352.8 383.8,352.8 383.8,360.4 
		386.3,360.4 386.3,352.8 393.9,352.8 393.9,350.3 386.3,350.3 	"/>
	<polygon fill="#FFFFFF" points="386.3,391.1 383.8,391.1 383.8,398.7 376.2,398.7 376.2,401.2 383.8,401.2 383.8,408.8 
		386.3,408.8 386.3,401.2 393.9,401.2 393.9,398.7 386.3,398.7 	"/>
	<polygon fill="#FFFFFF" points="386.3,439.6 383.8,439.6 383.8,447.2 376.2,447.2 376.2,449.7 383.8,449.7 383.8,457.3 
		386.3,457.3 386.3,449.7 393.9,449.7 393.9,447.2 386.3,447.2 	"/>
	<polygon fill="#FFFFFF" points="386.3,488.1 383.8,488.1 383.8,495.7 376.2,495.7 376.2,498.2 383.8,498.2 383.8,505.7 
		386.3,505.7 386.3,498.2 393.9,498.2 393.9,495.7 386.3,495.7 	"/>
	<polygon fill="#FFFFFF" points="386.3,536.5 383.8,536.5 383.8,544.1 376.2,544.1 376.2,546.6 383.8,546.6 383.8,554.2 
		386.3,554.2 386.3,546.6 393.9,546.6 393.9,544.1 386.3,544.1 	"/>
	<polygon fill="#FFFFFF" points="386.3,585 383.8,585 383.8,592.6 376.2,592.6 376.2,595.1 383.8,595.1 383.8,602.7 386.3,602.7 
		386.3,595.1 393.9,595.1 393.9,592.6 386.3,592.6 	"/>
	<polygon fill="#FFFFFF" points="386.3,633.5 383.8,633.5 383.8,641.1 376.2,641.1 376.2,643.6 383.8,643.6 383.8,651.1 
		386.3,651.1 386.3,643.6 393.9,643.6 393.9,641.1 386.3,641.1 	"/>
	<polygon fill="#FFFFFF" points="386.3,681.9 383.8,681.9 383.8,689.5 376.2,689.5 376.2,692 383.8,692 383.8,699.6 386.3,699.6 
		386.3,692 393.9,692 393.9,689.5 386.3,689.5 	"/>
	<polygon fill="#FFFFFF" points="439.8,11 439.8,3.4 437.3,3.4 437.3,11 429.7,11 429.7,13.5 437.3,13.5 437.3,21.1 439.8,21.1 
		439.8,13.5 447.4,13.5 447.4,11 	"/>
	<polygon fill="#FFFFFF" points="439.8,51.9 437.3,51.9 437.3,59.5 429.7,59.5 429.7,62 437.3,62 437.3,69.6 439.8,69.6 439.8,62 
		447.4,62 447.4,59.5 439.8,59.5 	"/>
	<polygon fill="#FFFFFF" points="439.8,100.4 437.3,100.4 437.3,107.9 429.7,107.9 429.7,110.4 437.3,110.4 437.3,118 439.8,118 
		439.8,110.4 447.4,110.4 447.4,107.9 439.8,107.9 	"/>
	<polygon fill="#FFFFFF" points="439.8,148.8 437.3,148.8 437.3,156.4 429.7,156.4 429.7,158.9 437.3,158.9 437.3,166.5 
		439.8,166.5 439.8,158.9 447.4,158.9 447.4,156.4 439.8,156.4 	"/>
	<polygon fill="#FFFFFF" points="439.8,197.3 437.3,197.3 437.3,204.9 429.7,204.9 429.7,207.4 437.3,207.4 437.3,215 439.8,215 
		439.8,207.4 447.4,207.4 447.4,204.9 439.8,204.9 	"/>
	<polygon fill="#FFFFFF" points="439.8,245.8 437.3,245.8 437.3,253.3 429.7,253.3 429.7,255.8 437.3,255.8 437.3,263.4 
		439.8,263.4 439.8,255.8 447.4,255.8 447.4,253.3 439.8,253.3 	"/>
	<polygon fill="#FFFFFF" points="439.8,294.2 437.3,294.2 437.3,301.8 429.7,301.8 429.7,304.3 437.3,304.3 437.3,311.9 
		439.8,311.9 439.8,304.3 447.4,304.3 447.4,301.8 439.8,301.8 	"/>
	<polygon fill="#FFFFFF" points="439.8,342.7 437.3,342.7 437.3,350.3 429.7,350.3 429.7,352.8 437.3,352.8 437.3,360.4 
		439.8,360.4 439.8,352.8 447.4,352.8 447.4,350.3 439.8,350.3 	"/>
	<polygon fill="#FFFFFF" points="439.8,391.1 437.3,391.1 437.3,398.7 429.7,398.7 429.7,401.2 437.3,401.2 437.3,408.8 
		439.8,408.8 439.8,401.2 447.4,401.2 447.4,398.7 439.8,398.7 	"/>
	<polygon fill="#FFFFFF" points="439.8,439.6 437.3,439.6 437.3,447.2 429.7,447.2 429.7,449.7 437.3,449.7 437.3,457.3 
		439.8,457.3 439.8,449.7 447.4,449.7 447.4,447.2 439.8,447.2 	"/>
	<polygon fill="#FFFFFF" points="439.8,488.1 437.3,488.1 437.3,495.7 429.7,495.7 429.7,498.2 437.3,498.2 437.3,505.7 
		439.8,505.7 439.8,498.2 447.4,498.2 447.4,495.7 439.8,495.7 	"/>
	<polygon fill="#FFFFFF" points="439.8,536.5 437.3,536.5 437.3,544.1 429.7,544.1 429.7,546.6 437.3,546.6 437.3,554.2 
		439.8,554.2 439.8,546.6 447.4,546.6 447.4,544.1 439.8,544.1 	"/>
	<polygon fill="#FFFFFF" points="439.8,585 437.3,585 437.3,592.6 429.7,592.6 429.7,595.1 437.3,595.1 437.3,602.7 439.8,602.7 
		439.8,595.1 447.4,595.1 447.4,592.6 439.8,592.6 	"/>
	<polygon fill="#FFFFFF" points="439.8,633.5 437.3,633.5 437.3,641.1 429.7,641.1 429.7,643.6 437.3,643.6 437.3,651.1 
		439.8,651.1 439.8,643.6 447.4,643.6 447.4,641.1 439.8,641.1 	"/>
	<polygon fill="#FFFFFF" points="439.8,681.9 437.3,681.9 437.3,689.5 429.7,689.5 429.7,692 437.3,692 437.3,699.6 439.8,699.6 
		439.8,692 447.4,692 447.4,689.5 439.8,689.5 	"/>
</g>
</svg>
