<?xml version="1.0" encoding="utf-8"?>
<!-- Generator: Adobe Illustrator 18.1.1, SVG Export Plug-In . SVG Version: 6.00 Build 0)  -->
<svg version="1.1" id="Layer_1" xmlns="http://www.w3.org/2000/svg" xmlns:xlink="http://www.w3.org/1999/xlink" x="0px" y="0px"
	 viewBox="0 0 130 120" enable-background="new 0 0 130 120" xml:space="preserve">
<g>
	<polygon fill="#D1E2F0" points="11.9,2.4 9.4,2.4 9.4,10 1.8,10 1.8,12.5 9.4,12.5 9.4,20.1 11.9,20.1 11.9,12.5 19.5,12.5 
		19.5,10 11.9,10 	"/>
	<polygon fill="#D1E2F0" points="11.9,50.9 9.4,50.9 9.4,58.5 1.8,58.5 1.8,61 9.4,61 9.4,68.6 11.9,68.6 11.9,61 19.5,61 
		19.5,58.5 11.9,58.5 	"/>
	<polygon fill="#D1E2F0" points="11.9,99.4 9.4,99.4 9.4,106.9 1.8,106.9 1.8,109.4 9.4,109.4 9.4,117 11.9,117 11.9,109.4 
		19.5,109.4 19.5,106.9 11.9,106.9 	"/>
	<polygon fill="#D1E2F0" points="65.4,50.9 62.9,50.9 62.9,58.5 55.3,58.5 55.3,61 62.9,61 62.9,68.6 65.4,68.6 65.4,61 73,61 
		73,58.5 65.4,58.5 	"/>
	<polygon fill="#D1E2F0" points="65.4,99.4 62.9,99.4 62.9,106.9 55.3,106.9 55.3,109.4 62.9,109.4 62.9,117 65.4,117 65.4,109.4 
		73,109.4 73,106.9 65.4,106.9 	"/>
	<polygon fill="#D1E2F0" points="118.9,58.5 118.9,50.9 116.4,50.9 116.4,58.5 108.8,58.5 108.8,61 116.4,61 116.4,68.6 118.9,68.6 
		118.9,61 126.5,61 126.5,58.5 	"/>
	<polygon fill="#D1E2F0" points="118.9,99.4 116.4,99.4 116.4,106.9 108.8,106.9 108.8,109.4 116.4,109.4 116.4,117 118.9,117 
		118.9,109.4 126.5,109.4 126.5,106.9 118.9,106.9 	"/>
</g>
</svg>
