<?xml version="1.0" encoding="utf-8"?>
<!-- Generator: Adobe Illustrator 18.1.1, SVG Export Plug-In . SVG Version: 6.00 Build 0)  -->
<svg version="1.1" id="Layer_1" xmlns="http://www.w3.org/2000/svg" xmlns:xlink="http://www.w3.org/1999/xlink" x="0px" y="0px"
	 viewBox="0 0 130 120" enable-background="new 0 0 130 120" xml:space="preserve">
<g>
	<polygon fill="#D1E2F0" points="12.4,2.4 9.9,2.4 9.9,10 2.3,10 2.3,12.5 9.9,12.5 9.9,20.1 12.4,20.1 12.4,12.5 20,12.5 20,10 
		12.4,10 	"/>
	<polygon fill="#D1E2F0" points="12.4,50.9 9.9,50.9 9.9,58.5 2.3,58.5 2.3,61 9.9,61 9.9,68.6 12.4,68.6 12.4,61 20,61 20,58.5 
		12.4,58.5 	"/>
	<polygon fill="#D1E2F0" points="12.4,99.4 9.9,99.4 9.9,106.9 2.3,106.9 2.3,109.4 9.9,109.4 9.9,117 12.4,117 12.4,109.4 
		20,109.4 20,106.9 12.4,106.9 	"/>
	<polygon fill="#D1E2F0" points="65.9,50.9 63.4,50.9 63.4,58.5 55.8,58.5 55.8,61 63.4,61 63.4,68.6 65.9,68.6 65.9,61 73.5,61 
		73.5,58.5 65.9,58.5 	"/>
	<polygon fill="#D1E2F0" points="65.9,99.4 63.4,99.4 63.4,106.9 55.8,106.9 55.8,109.4 63.4,109.4 63.4,117 65.9,117 65.9,109.4 
		73.5,109.4 73.5,106.9 65.9,106.9 	"/>
	<polygon fill="#D1E2F0" points="119.4,58.5 119.4,50.9 116.9,50.9 116.9,58.5 109.3,58.5 109.3,61 116.9,61 116.9,68.6 119.4,68.6 
		119.4,61 127,61 127,58.5 	"/>
	<polygon fill="#D1E2F0" points="119.4,99.4 116.9,99.4 116.9,106.9 109.3,106.9 109.3,109.4 116.9,109.4 116.9,117 119.4,117 
		119.4,109.4 127,109.4 127,106.9 119.4,106.9 	"/>
</g>
</svg>
