<?xml version="1.0" encoding="utf-8"?>
<!-- Generator: Adobe Illustrator 18.1.1, SVG Export Plug-In . SVG Version: 6.00 Build 0)  -->
<svg version="1.1" id="Layer_1" xmlns="http://www.w3.org/2000/svg" xmlns:xlink="http://www.w3.org/1999/xlink" x="0px" y="0px"
	 viewBox="0 0 340 800" enable-background="new 0 0 340 800" xml:space="preserve">
<g>
	<polygon fill="#FFFFFF" points="11.4,3.4 8.9,3.4 8.9,11 1.3,11 1.3,13.5 8.9,13.5 8.9,21.1 11.4,21.1 11.4,13.5 19,13.5 19,11 
		11.4,11 	"/>
	<polygon fill="#FFFFFF" points="11.4,51.9 8.9,51.9 8.9,59.5 1.3,59.5 1.3,62 8.9,62 8.9,69.6 11.4,69.6 11.4,62 19,62 19,59.5 
		11.4,59.5 	"/>
	<polygon fill="#FFFFFF" points="11.4,100.4 8.9,100.4 8.9,107.9 1.3,107.9 1.3,110.4 8.9,110.4 8.9,118 11.4,118 11.4,110.4 
		19,110.4 19,107.9 11.4,107.9 	"/>
	<polygon fill="#FFFFFF" points="11.4,148.8 8.9,148.8 8.9,156.4 1.3,156.4 1.3,158.9 8.9,158.9 8.9,166.5 11.4,166.5 11.4,158.9 
		19,158.9 19,156.4 11.4,156.4 	"/>
	<polygon fill="#FFFFFF" points="11.4,197.3 8.9,197.3 8.9,204.9 1.3,204.9 1.3,207.4 8.9,207.4 8.9,215 11.4,215 11.4,207.4 
		19,207.4 19,204.9 11.4,204.9 	"/>
	<polygon fill="#FFFFFF" points="11.4,245.8 8.9,245.8 8.9,253.3 1.3,253.3 1.3,255.8 8.9,255.8 8.9,263.4 11.4,263.4 11.4,255.8 
		19,255.8 19,253.3 11.4,253.3 	"/>
	<polygon fill="#FFFFFF" points="11.4,294.2 8.9,294.2 8.9,301.8 1.3,301.8 1.3,304.3 8.9,304.3 8.9,311.9 11.4,311.9 11.4,304.3 
		19,304.3 19,301.8 11.4,301.8 	"/>
	<polygon fill="#FFFFFF" points="11.4,342.7 8.9,342.7 8.9,350.3 1.3,350.3 1.3,352.8 8.9,352.8 8.9,360.4 11.4,360.4 11.4,352.8 
		19,352.8 19,350.3 11.4,350.3 	"/>
	<polygon fill="#FFFFFF" points="11.4,391.1 8.9,391.1 8.9,398.7 1.3,398.7 1.3,401.2 8.9,401.2 8.9,408.8 11.4,408.8 11.4,401.2 
		19,401.2 19,398.7 11.4,398.7 	"/>
	<polygon fill="#FFFFFF" points="11.4,439.6 8.9,439.6 8.9,447.2 1.3,447.2 1.3,449.7 8.9,449.7 8.9,457.3 11.4,457.3 11.4,449.7 
		19,449.7 19,447.2 11.4,447.2 	"/>
	<polygon fill="#FFFFFF" points="11.4,488.1 8.9,488.1 8.9,495.7 1.3,495.7 1.3,498.2 8.9,498.2 8.9,505.7 11.4,505.7 11.4,498.2 
		19,498.2 19,495.7 11.4,495.7 	"/>
	<polygon fill="#FFFFFF" points="11.4,536.5 8.9,536.5 8.9,544.1 1.3,544.1 1.3,546.6 8.9,546.6 8.9,554.2 11.4,554.2 11.4,546.6 
		19,546.6 19,544.1 11.4,544.1 	"/>
	<polygon fill="#FFFFFF" points="11.4,585 8.9,585 8.9,592.6 1.3,592.6 1.3,595.1 8.9,595.1 8.9,602.7 11.4,602.7 11.4,595.1 
		19,595.1 19,592.6 11.4,592.6 	"/>
	<polygon fill="#FFFFFF" points="11.4,633.5 8.9,633.5 8.9,641.1 1.3,641.1 1.3,643.6 8.9,643.6 8.9,651.1 11.4,651.1 11.4,643.6 
		19,643.6 19,641.1 11.4,641.1 	"/>
	<polygon fill="#FFFFFF" points="11.4,681.9 8.9,681.9 8.9,689.5 1.3,689.5 1.3,692 8.9,692 8.9,699.6 11.4,699.6 11.4,692 19,692 
		19,689.5 11.4,689.5 	"/>
	<polygon fill="#FFFFFF" points="64.9,3.4 62.4,3.4 62.4,11 54.8,11 54.8,13.5 62.4,13.5 62.4,21.1 64.9,21.1 64.9,13.5 72.5,13.5 
		72.5,11 64.9,11 	"/>
	<polygon fill="#FFFFFF" points="64.9,51.9 62.4,51.9 62.4,59.5 54.8,59.5 54.8,62 62.4,62 62.4,69.6 64.9,69.6 64.9,62 72.5,62 
		72.5,59.5 64.9,59.5 	"/>
	<polygon fill="#FFFFFF" points="64.9,100.4 62.4,100.4 62.4,107.9 54.8,107.9 54.8,110.4 62.4,110.4 62.4,118 64.9,118 64.9,110.4 
		72.5,110.4 72.5,107.9 64.9,107.9 	"/>
	<polygon fill="#FFFFFF" points="64.9,148.8 62.4,148.8 62.4,156.4 54.8,156.4 54.8,158.9 62.4,158.9 62.4,166.5 64.9,166.5 
		64.9,158.9 72.5,158.9 72.5,156.4 64.9,156.4 	"/>
	<polygon fill="#FFFFFF" points="64.9,197.3 62.4,197.3 62.4,204.9 54.8,204.9 54.8,207.4 62.4,207.4 62.4,215 64.9,215 64.9,207.4 
		72.5,207.4 72.5,204.9 64.9,204.9 	"/>
	<polygon fill="#FFFFFF" points="64.9,245.8 62.4,245.8 62.4,253.3 54.8,253.3 54.8,255.8 62.4,255.8 62.4,263.4 64.9,263.4 
		64.9,255.8 72.5,255.8 72.5,253.3 64.9,253.3 	"/>
	<polygon fill="#FFFFFF" points="64.9,294.2 62.4,294.2 62.4,301.8 54.8,301.8 54.8,304.3 62.4,304.3 62.4,311.9 64.9,311.9 
		64.9,304.3 72.5,304.3 72.5,301.8 64.9,301.8 	"/>
	<polygon fill="#FFFFFF" points="64.9,342.7 62.4,342.7 62.4,350.3 54.8,350.3 54.8,352.8 62.4,352.8 62.4,360.4 64.9,360.4 
		64.9,352.8 72.5,352.8 72.5,350.3 64.9,350.3 	"/>
	<polygon fill="#FFFFFF" points="64.9,391.1 62.4,391.1 62.4,398.7 54.8,398.7 54.8,401.2 62.4,401.2 62.4,408.8 64.9,408.8 
		64.9,401.2 72.5,401.2 72.5,398.7 64.9,398.7 	"/>
	<polygon fill="#FFFFFF" points="64.9,439.6 62.4,439.6 62.4,447.2 54.8,447.2 54.8,449.7 62.4,449.7 62.4,457.3 64.9,457.3 
		64.9,449.7 72.5,449.7 72.5,447.2 64.9,447.2 	"/>
	<polygon fill="#FFFFFF" points="64.9,488.1 62.4,488.1 62.4,495.7 54.8,495.7 54.8,498.2 62.4,498.2 62.4,505.7 64.9,505.7 
		64.9,498.2 72.5,498.2 72.5,495.7 64.9,495.7 	"/>
	<polygon fill="#FFFFFF" points="64.9,536.5 62.4,536.5 62.4,544.1 54.8,544.1 54.8,546.6 62.4,546.6 62.4,554.2 64.9,554.2 
		64.9,546.6 72.5,546.6 72.5,544.1 64.9,544.1 	"/>
	<polygon fill="#FFFFFF" points="64.9,585 62.4,585 62.4,592.6 54.8,592.6 54.8,595.1 62.4,595.1 62.4,602.7 64.9,602.7 64.9,595.1 
		72.5,595.1 72.5,592.6 64.9,592.6 	"/>
	<polygon fill="#FFFFFF" points="64.9,633.5 62.4,633.5 62.4,641.1 54.8,641.1 54.8,643.6 62.4,643.6 62.4,651.1 64.9,651.1 
		64.9,643.6 72.5,643.6 72.5,641.1 64.9,641.1 	"/>
	<polygon fill="#FFFFFF" points="64.9,681.9 62.4,681.9 62.4,689.5 54.8,689.5 54.8,692 62.4,692 62.4,699.6 64.9,699.6 64.9,692 
		72.5,692 72.5,689.5 64.9,689.5 	"/>
	<polygon fill="#FFFFFF" points="118.4,3.4 115.9,3.4 115.9,11 108.3,11 108.3,13.5 115.9,13.5 115.9,21.1 118.4,21.1 118.4,13.5 
		126,13.5 126,11 118.4,11 	"/>
	<polygon fill="#FFFFFF" points="118.4,51.9 115.9,51.9 115.9,59.5 108.3,59.5 108.3,62 115.9,62 115.9,69.6 118.4,69.6 118.4,62 
		126,62 126,59.5 118.4,59.5 	"/>
	<polygon fill="#FFFFFF" points="118.4,100.4 115.9,100.4 115.9,107.9 108.3,107.9 108.3,110.4 115.9,110.4 115.9,118 118.4,118 
		118.4,110.4 126,110.4 126,107.9 118.4,107.9 	"/>
	<polygon fill="#FFFFFF" points="118.4,148.8 115.9,148.8 115.9,156.4 108.3,156.4 108.3,158.9 115.9,158.9 115.9,166.5 
		118.4,166.5 118.4,158.9 126,158.9 126,156.4 118.4,156.4 	"/>
	<polygon fill="#FFFFFF" points="118.4,197.3 115.9,197.3 115.9,204.9 108.3,204.9 108.3,207.4 115.9,207.4 115.9,215 118.4,215 
		118.4,207.4 126,207.4 126,204.9 118.4,204.9 	"/>
	<polygon fill="#FFFFFF" points="118.4,245.8 115.9,245.8 115.9,253.3 108.3,253.3 108.3,255.8 115.9,255.8 115.9,263.4 
		118.4,263.4 118.4,255.8 126,255.8 126,253.3 118.4,253.3 	"/>
	<polygon fill="#FFFFFF" points="118.4,294.2 115.9,294.2 115.9,301.8 108.3,301.8 108.3,304.3 115.9,304.3 115.9,311.9 
		118.4,311.9 118.4,304.3 126,304.3 126,301.8 118.4,301.8 	"/>
	<polygon fill="#FFFFFF" points="118.4,342.7 115.9,342.7 115.9,350.3 108.3,350.3 108.3,352.8 115.9,352.8 115.9,360.4 
		118.4,360.4 118.4,352.8 126,352.8 126,350.3 118.4,350.3 	"/>
	<polygon fill="#FFFFFF" points="118.4,391.1 115.9,391.1 115.9,398.7 108.3,398.7 108.3,401.2 115.9,401.2 115.9,408.8 
		118.4,408.8 118.4,401.2 126,401.2 126,398.7 118.4,398.7 	"/>
	<polygon fill="#FFFFFF" points="118.4,439.6 115.9,439.6 115.9,447.2 108.3,447.2 108.3,449.7 115.9,449.7 115.9,457.3 
		118.4,457.3 118.4,449.7 126,449.7 126,447.2 118.4,447.2 	"/>
	<polygon fill="#FFFFFF" points="118.4,488.1 115.9,488.1 115.9,495.7 108.3,495.7 108.3,498.2 115.9,498.2 115.9,505.7 
		118.4,505.7 118.4,498.2 126,498.2 126,495.7 118.4,495.7 	"/>
	<polygon fill="#FFFFFF" points="118.4,536.5 115.9,536.5 115.9,544.1 108.3,544.1 108.3,546.6 115.9,546.6 115.9,554.2 
		118.4,554.2 118.4,546.6 126,546.6 126,544.1 118.4,544.1 	"/>
	<polygon fill="#FFFFFF" points="118.4,585 115.9,585 115.9,592.6 108.3,592.6 108.3,595.1 115.9,595.1 115.9,602.7 118.4,602.7 
		118.4,595.1 126,595.1 126,592.6 118.4,592.6 	"/>
	<polygon fill="#FFFFFF" points="118.4,633.5 115.9,633.5 115.9,641.1 108.3,641.1 108.3,643.6 115.9,643.6 115.9,651.1 
		118.4,651.1 118.4,643.6 126,643.6 126,641.1 118.4,641.1 	"/>
	<polygon fill="#FFFFFF" points="118.4,681.9 115.9,681.9 115.9,689.5 108.3,689.5 108.3,692 115.9,692 115.9,699.6 118.4,699.6 
		118.4,692 126,692 126,689.5 118.4,689.5 	"/>
	<polygon fill="#FFFFFF" points="171.1,682.7 168.6,682.7 168.6,690.3 161,690.3 161,692.8 168.6,692.8 168.6,700.4 171.1,700.4 
		171.1,692.8 178.7,692.8 178.7,690.3 171.1,690.3 	"/>
	<polygon fill="#FFFFFF" points="171.1,731.2 168.6,731.2 168.6,738.8 161,738.8 161,741.3 168.6,741.3 168.6,748.8 171.1,748.8 
		171.1,741.3 178.7,741.3 178.7,738.8 171.1,738.8 	"/>
	<polygon fill="#FFFFFF" points="171.1,779.6 168.6,779.6 168.6,787.2 161,787.2 161,789.7 168.6,789.7 168.6,797.3 171.1,797.3 
		171.1,789.7 178.7,789.7 178.7,787.2 171.1,787.2 	"/>
	<polygon fill="#FFFFFF" points="224.6,682.7 222.1,682.7 222.1,690.3 214.5,690.3 214.5,692.8 222.1,692.8 222.1,700.4 
		224.6,700.4 224.6,692.8 232.2,692.8 232.2,690.3 224.6,690.3 	"/>
	<polygon fill="#FFFFFF" points="224.6,731.2 222.1,731.2 222.1,738.8 214.5,738.8 214.5,741.3 222.1,741.3 222.1,748.8 
		224.6,748.8 224.6,741.3 232.2,741.3 232.2,738.8 224.6,738.8 	"/>
	<polygon fill="#FFFFFF" points="118.4,731.2 115.9,731.2 115.9,738.8 108.3,738.8 108.3,741.3 115.9,741.3 115.9,748.8 
		118.4,748.8 118.4,741.3 126,741.3 126,738.8 118.4,738.8 	"/>
	<polygon fill="#FFFFFF" points="224.6,779.6 222.1,779.6 222.1,787.2 214.5,787.2 214.5,789.7 222.1,789.7 222.1,797.3 
		224.6,797.3 224.6,789.7 232.2,789.7 232.2,787.2 224.6,787.2 	"/>
	<polygon fill="#FFFFFF" points="278.1,682.7 275.6,682.7 275.6,690.3 268,690.3 268,692.8 275.6,692.8 275.6,700.4 278.1,700.4 
		278.1,692.8 285.7,692.8 285.7,690.3 278.1,690.3 	"/>
	<polygon fill="#FFFFFF" points="278.1,731.2 275.6,731.2 275.6,738.8 268,738.8 268,741.3 275.6,741.3 275.6,748.8 278.1,748.8 
		278.1,741.3 285.7,741.3 285.7,738.8 278.1,738.8 	"/>
	<polygon fill="#FFFFFF" points="278.1,779.6 275.6,779.6 275.6,787.2 268,787.2 268,789.7 275.6,789.7 275.6,797.3 278.1,797.3 
		278.1,789.7 285.7,789.7 285.7,787.2 278.1,787.2 	"/>
	<polygon fill="#FFFFFF" points="331.1,738.8 331.1,731.2 328.6,731.2 328.6,738.8 321,738.8 321,741.3 328.6,741.3 328.6,748.8 
		331.1,748.8 331.1,741.3 338.7,741.3 338.7,738.8 	"/>
	<polygon fill="#FFFFFF" points="331.1,779.6 328.6,779.6 328.6,787.2 321,787.2 321,789.7 328.6,789.7 328.6,797.3 331.1,797.3 
		331.1,789.7 338.7,789.7 338.7,787.2 331.1,787.2 	"/>
	<polygon fill="#FFFFFF" points="171.9,3.4 169.4,3.4 169.4,11 161.8,11 161.8,13.5 169.4,13.5 169.4,21.1 171.9,21.1 171.9,13.5 
		179.5,13.5 179.5,11 171.9,11 	"/>
	<polygon fill="#FFFFFF" points="171.9,51.9 169.4,51.9 169.4,59.5 161.8,59.5 161.8,62 169.4,62 169.4,69.6 171.9,69.6 171.9,62 
		179.5,62 179.5,59.5 171.9,59.5 	"/>
	<polygon fill="#FFFFFF" points="171.9,100.4 169.4,100.4 169.4,107.9 161.8,107.9 161.8,110.4 169.4,110.4 169.4,118 171.9,118 
		171.9,110.4 179.5,110.4 179.5,107.9 171.9,107.9 	"/>
</g>
</svg>
