<?xml version="1.0" encoding="utf-8"?>
<!-- Generator: Adobe Illustrator 18.1.1, SVG Export Plug-In . SVG Version: 6.00 Build 0)  -->
<svg version="1.1" id="Layer_1" xmlns="http://www.w3.org/2000/svg" xmlns:xlink="http://www.w3.org/1999/xlink" x="0px" y="0px"
	 viewBox="0 0 335 90" enable-background="new 0 0 335 90" xml:space="preserve">
<g>
	<path fill="#2B53A0" d="M112.7,38.7h-8.6v10.8h-4.6V25.3h4.6V35h8.6v-9.7h4.7v24.2h-4.7V38.7z"/>
	<path fill="#2B53A0" d="M122.7,36.8h10.6v3.6h-10.6V36.8z"/>
	<path fill="#2B53A0" d="M149.5,43.9h-8l-1.5,5.6h-4.8l7.5-24.2h5.7l7.5,24.2H151L149.5,43.9z M148.5,40.4l-3.1-11.6l-3.1,11.6
		H148.5z"/>
	<path fill="#2B53A0" d="M176.6,42.5c0,5.3-4.2,7-10.1,7h-7.3V25.3h6.3c6.2,0,10,1.8,10,6.2c0,3-2.2,4.7-4.5,5.2
		C173.9,37.2,176.6,38.5,176.6,42.5z M163.8,28.7v6.5h2.8c2.5,0,4.2-1.1,4.2-3.4c0-2.5-1.7-3.2-4.8-3.2H163.8z M171.8,42.4
		c0-2.9-2.1-3.9-4.8-3.9h-3.2V46h2.7C169.6,46,171.8,45.4,171.8,42.4z"/>
	<path fill="#2B53A0" d="M195.7,29h-6.3v20.5h-4.7V29h-6.5v-3.7h18L195.7,29z"/>
	<path fill="#2B53A0" d="M218.5,37.4c0,8-4.1,12.6-10.6,12.6s-10.6-4.5-10.6-12.6c0-7.9,4.1-12.6,10.6-12.6S218.5,29.3,218.5,37.4z
		 M202.2,37.4c0,6.5,2.2,9.1,5.7,9.1c3.6,0,5.7-2.6,5.7-9.1c0-6.5-2.1-9.1-5.7-9.1C204.3,28.3,202.2,30.9,202.2,37.4z"/>
	<path fill="#2B53A0" d="M246.1,49.5h-4.5L241,39.4c-0.2-3.6-0.4-7.3-0.3-9.9l-4.4,17.4h-4.4l-4.7-17.4c0.1,3.3,0.1,6.6-0.1,10
		l-0.6,10H222l1.9-24.2h6l4.3,16.9l4.1-16.9h6L246.1,49.5z"/>
	<path fill="#2B53A0" d="M262.6,43.9h-8l-1.5,5.6h-4.8l7.5-24.2h5.7l7.5,24.2h-4.9L262.6,43.9z M261.6,40.4l-3.1-11.6l-3.1,11.6
		H261.6z"/>
	<path fill="#2B53A0" d="M285.6,29h-6.3v20.5h-4.7V29h-6.5v-3.7h18L285.6,29z"/>
	<path fill="#2B53A0" d="M307.6,49.5H303V39.2c0-4,0.4-7.2,0.7-9.1l-8.2,19.4h-5.7V25.3h4.6v10.4c0,4.4-0.3,6.8-0.7,9l8.4-19.4h5.6
		V49.5z"/>
	<path fill="#2B53A0" d="M325.4,36.4l7,13.1h-5.2l-5.7-10.9h-2.9v10.9H314V25.3h4.6v9.8h3l5.5-9.8h4.7L325.4,36.4z"/>
</g>
<g>
	<g>
		<g>
			<path fill="#FFFFFF" d="M60.8,83.5H26.7c-13.2,0-23.9-10.8-23.9-23.9V25.5c0-13.2,10.8-23.9,23.9-23.9h34.1
				c13.2,0,23.9,10.8,23.9,23.9v34.1C84.7,72.8,74,83.5,60.8,83.5z"/>
			<path fill="#2B53A0" d="M60.8,84H26.7c-13.5,0-24.4-11-24.4-24.4V25.5C2.2,12,13.2,1,26.7,1h34.1c13.5,0,24.4,11,24.4,24.4v34.1
				C85.2,73.1,74.3,84,60.8,84z M26.7,2C13.8,2,3.2,12.6,3.2,25.5v34.1C3.2,72.5,13.8,83,26.7,83h34.1c12.9,0,23.4-10.5,23.4-23.4
				V25.5C84.2,12.6,73.7,2,60.8,2H26.7z"/>
		</g>
		<path fill="#2B53A0" d="M60.8,83.7H26.7c-13.3,0-24.1-10.8-24.1-24.1V25.5c0-13.3,10.8-24.1,24.1-24.1h34.1
			c13.3,0,24.1,10.8,24.1,24.1v34.1C84.9,72.9,74.1,83.7,60.8,83.7z M26.7,1.7C13.6,1.7,2.9,12.4,2.9,25.5v34.1
			c0,13.1,10.7,23.8,23.8,23.8h34.1c13.1,0,23.8-10.7,23.8-23.8V25.5c0-13.1-10.7-23.8-23.8-23.8H26.7z"/>
	</g>
	<g>
		<path fill="#2B53A0" d="M70.8,76.7H16.7c-4.2,0-7.6-3.4-7.6-7.6V14.9c0-4.2,3.4-7.6,7.6-7.6h54.2c4.2,0,7.6,3.4,7.6,7.6v54.2
			C78.4,73.3,75,76.7,70.8,76.7z"/>
		<g>
			<g>
				<rect x="15.9" y="11.6" fill="#FFFFFF" width="0.8" height="60.8"/>
				<g>
					<rect x="14" y="48.3" fill="#FFFFFF" width="4.4" height="0.8"/>
					<rect x="14" y="55" fill="#FFFFFF" width="4.4" height="0.8"/>
					<rect x="14" y="61.7" fill="#FFFFFF" width="4.4" height="0.8"/>
					<rect x="14" y="41.6" fill="#FFFFFF" width="4.4" height="0.8"/>
					<rect x="14" y="34.9" fill="#FFFFFF" width="4.4" height="0.8"/>
					<rect x="14" y="28.2" fill="#FFFFFF" width="4.4" height="0.8"/>
					<rect x="14" y="21.5" fill="#FFFFFF" width="4.4" height="0.8"/>
					<rect x="14" y="14.8" fill="#FFFFFF" width="4.4" height="0.8"/>
					<rect x="14" y="68.5" fill="#FFFFFF" width="4.4" height="0.8"/>
				</g>
			</g>
			<g>
				<rect x="23.7" y="11.6" fill="#FFFFFF" width="0.8" height="60.8"/>
				<g>
					<rect x="21.9" y="48.3" fill="#FFFFFF" width="4.4" height="0.8"/>
					<rect x="21.9" y="61.7" fill="#FFFFFF" width="4.4" height="0.8"/>
					<rect x="21.9" y="68.5" fill="#FFFFFF" width="4.4" height="0.8"/>
					<rect x="21.9" y="55" fill="#FFFFFF" width="4.4" height="0.8"/>
					<rect x="21.9" y="41.6" fill="#FFFFFF" width="4.4" height="0.8"/>
					<rect x="21.9" y="34.9" fill="#FFFFFF" width="4.4" height="0.8"/>
					<rect x="21.9" y="28.2" fill="#FFFFFF" width="4.4" height="0.8"/>
					<rect x="21.9" y="21.5" fill="#FFFFFF" width="4.4" height="0.8"/>
					<rect x="21.9" y="14.8" fill="#FFFFFF" width="4.4" height="0.8"/>
				</g>
			</g>
			<g>
				<rect x="31.6" y="11.6" fill="#FFFFFF" width="0.8" height="60.8"/>
				<g>
					<rect x="29.8" y="48.3" fill="#FFFFFF" width="4.4" height="0.8"/>
					<rect x="29.8" y="55" fill="#FFFFFF" width="4.4" height="0.8"/>
					<rect x="29.8" y="61.7" fill="#FFFFFF" width="4.4" height="0.8"/>
					<rect x="29.8" y="41.6" fill="#FFFFFF" width="4.4" height="0.8"/>
					<rect x="29.8" y="34.9" fill="#FFFFFF" width="4.4" height="0.8"/>
					<rect x="29.8" y="28.2" fill="#FFFFFF" width="4.4" height="0.8"/>
					<rect x="29.8" y="21.5" fill="#FFFFFF" width="4.4" height="0.8"/>
					<rect x="29.8" y="14.8" fill="#FFFFFF" width="4.4" height="0.8"/>
					<rect x="29.8" y="68.5" fill="#FFFFFF" width="4.4" height="0.8"/>
				</g>
			</g>
			<g>
				<rect x="39.4" y="11.6" fill="#FFFFFF" width="0.8" height="60.8"/>
				<g>
					<rect x="37.6" y="48.3" fill="#FFFFFF" width="4.4" height="0.8"/>
					<rect x="37.6" y="55" fill="#FFFFFF" width="4.4" height="0.8"/>
					<rect x="37.6" y="61.7" fill="#FFFFFF" width="4.4" height="0.8"/>
					<rect x="37.6" y="41.6" fill="#FFFFFF" width="4.4" height="0.8"/>
					<rect x="37.6" y="34.9" fill="#FFFFFF" width="4.4" height="0.8"/>
					<rect x="37.6" y="28.2" fill="#FFFFFF" width="4.4" height="0.8"/>
					<rect x="37.6" y="21.5" fill="#FFFFFF" width="4.4" height="0.8"/>
					<rect x="37.6" y="14.8" fill="#FFFFFF" width="4.4" height="0.8"/>
					<rect x="37.6" y="68.5" fill="#FFFFFF" width="4.4" height="0.8"/>
				</g>
			</g>
			<g>
				<rect x="47.3" y="11.6" fill="#FFFFFF" width="0.8" height="60.8"/>
				<g>
					<rect x="45.5" y="48.3" fill="#FFFFFF" width="4.4" height="0.8"/>
					<rect x="45.5" y="55" fill="#FFFFFF" width="4.4" height="0.8"/>
					<rect x="45.5" y="61.7" fill="#FFFFFF" width="4.4" height="0.8"/>
					<rect x="45.5" y="41.6" fill="#FFFFFF" width="4.4" height="0.8"/>
					<rect x="45.5" y="34.9" fill="#FFFFFF" width="4.4" height="0.8"/>
					<rect x="45.5" y="28.2" fill="#FFFFFF" width="4.4" height="0.8"/>
					<rect x="45.5" y="21.5" fill="#FFFFFF" width="4.4" height="0.8"/>
					<rect x="45.5" y="14.8" fill="#FFFFFF" width="4.4" height="0.8"/>
					<rect x="45.5" y="68.5" fill="#FFFFFF" width="4.4" height="0.8"/>
				</g>
			</g>
			<g>
				<rect x="55.1" y="11.6" fill="#FFFFFF" width="0.8" height="60.8"/>
				<g>
					<rect x="53.3" y="48.3" fill="#FFFFFF" width="4.4" height="0.8"/>
					<rect x="53.3" y="55" fill="#FFFFFF" width="4.4" height="0.8"/>
					<rect x="53.3" y="61.7" fill="#FFFFFF" width="4.4" height="0.8"/>
					<rect x="53.3" y="41.6" fill="#FFFFFF" width="4.4" height="0.8"/>
					<rect x="53.3" y="34.9" fill="#FFFFFF" width="4.4" height="0.8"/>
					<rect x="53.3" y="28.2" fill="#FFFFFF" width="4.4" height="0.8"/>
					<rect x="53.3" y="21.5" fill="#FFFFFF" width="4.4" height="0.8"/>
					<rect x="53.3" y="14.8" fill="#FFFFFF" width="4.4" height="0.8"/>
					<rect x="53.3" y="68.5" fill="#FFFFFF" width="4.4" height="0.8"/>
				</g>
			</g>
			<g>
				<rect x="63" y="11.6" fill="#FFFFFF" width="0.8" height="60.8"/>
				<g>
					<rect x="61.2" y="48.3" fill="#FFFFFF" width="4.4" height="0.8"/>
					<rect x="61.2" y="61.7" fill="#FFFFFF" width="4.4" height="0.8"/>
					<rect x="61.2" y="55" fill="#FFFFFF" width="4.4" height="0.8"/>
					<rect x="61.2" y="68.5" fill="#FFFFFF" width="4.4" height="0.8"/>
					<rect x="61.2" y="41.6" fill="#FFFFFF" width="4.4" height="0.8"/>
					<rect x="61.2" y="34.9" fill="#FFFFFF" width="4.4" height="0.8"/>
					<rect x="61.2" y="28.2" fill="#FFFFFF" width="4.4" height="0.8"/>
					<rect x="61.2" y="21.5" fill="#FFFFFF" width="4.4" height="0.8"/>
					<rect x="61.2" y="14.8" fill="#FFFFFF" width="4.4" height="0.8"/>
				</g>
			</g>
			<g>
				<rect x="70.9" y="11.6" fill="#FFFFFF" width="0.8" height="60.8"/>
				<g>
					<rect x="69.1" y="48.3" fill="#FFFFFF" width="4.4" height="0.8"/>
					<rect x="69.1" y="55" fill="#FFFFFF" width="4.4" height="0.8"/>
					<rect x="69.1" y="61.7" fill="#FFFFFF" width="4.4" height="0.8"/>
					<rect x="69.1" y="41.6" fill="#FFFFFF" width="4.4" height="0.8"/>
					<rect x="69.1" y="34.9" fill="#FFFFFF" width="4.4" height="0.8"/>
					<rect x="69.1" y="28.2" fill="#FFFFFF" width="4.4" height="0.8"/>
					<rect x="69.1" y="21.5" fill="#FFFFFF" width="4.4" height="0.8"/>
					<rect x="69.1" y="14.8" fill="#FFFFFF" width="4.4" height="0.8"/>
					<rect x="69.1" y="68.5" fill="#FFFFFF" width="4.4" height="0.8"/>
				</g>
			</g>
		</g>
		<rect x="11.8" y="25.4" fill="#2B53A0" width="63.8" height="19.5"/>
		<g>
			<path fill="#FFFFFF" d="M16.8,31.3h1.1l2.7,7.5h-1.1l-0.8-2.2h-2.8l-0.8,2.2h-1.1L16.8,31.3z M18.5,35.8l-0.8-2.4
				c-0.1-0.4-0.3-1.1-0.3-1.1h0c0,0-0.2,0.7-0.3,1.1l-0.8,2.4H18.5z"/>
			<path fill="#FFFFFF" d="M19.5,31.3h1.1l1.9,5.3c0.1,0.4,0.3,1,0.3,1h0c0,0,0.1-0.6,0.3-1l1.9-5.3h1.1l-2.7,7.5h-1.1L19.5,31.3z"
				/>
			<path fill="#FFFFFF" d="M29.7,32.2h-2.6v-0.9h6.2v0.9h-2.6v6.6h-1V32.2z"/>
			<path fill="#FFFFFF" d="M37.5,31.2c2.2,0,3.9,1.7,3.9,3.8c0,2.2-1.6,3.9-3.9,3.9c-2.2,0-3.9-1.7-3.9-3.9
				C33.6,32.8,35.3,31.2,37.5,31.2z M37.5,38c1.6,0,2.8-1.3,2.8-3c0-1.6-1.2-2.9-2.8-2.9c-1.6,0-2.8,1.2-2.8,2.9
				C34.7,36.7,35.9,38,37.5,38z"/>
			<path fill="#FFFFFF" d="M43.1,31.3h1.1l1.7,4.1c0.2,0.4,0.4,1,0.4,1h0c0,0,0.2-0.6,0.4-1l1.7-4.1h1.1l0.6,7.5h-1l-0.4-4.7
				c0-0.5,0-1.1,0-1.1h0c0,0-0.2,0.7-0.4,1.1l-1.5,3.4h-0.9l-1.5-3.4c-0.2-0.4-0.4-1.1-0.4-1.1h0c0,0,0,0.7,0,1.1l-0.4,4.7h-1.1
				L43.1,31.3z"/>
			<path fill="#FFFFFF" d="M53.5,31.3h1.1l2.7,7.5h-1.1l-0.8-2.2h-2.8l-0.8,2.2h-1.1L53.5,31.3z M55.2,35.8l-0.8-2.4
				c-0.1-0.4-0.3-1.1-0.3-1.1h0c0,0-0.2,0.7-0.3,1.1L53,35.8H55.2z"/>
			<path fill="#FFFFFF" d="M59.5,32.2h-2.6v-0.9h6.2v0.9h-2.6v6.6h-1V32.2z"/>
			<path fill="#FFFFFF" d="M64.2,31.3h1.1v7.5h-1.1V31.3z"/>
			<path fill="#FFFFFF" d="M70.5,31.2c1,0,2,0.3,2.7,1L72.7,33c-0.6-0.5-1.4-0.8-2.2-0.8c-1.7,0-2.8,1.3-2.8,2.9c0,1.6,1.1,3,2.8,3
				c0.8,0,1.7-0.4,2.3-1l0.6,0.8c-0.6,0.6-1.6,1.2-2.9,1.2c-2.3,0-3.9-1.7-3.9-3.9C66.7,32.8,68.3,31.2,70.5,31.2z"/>
		</g>
	</g>
	<g>
		<rect x="22.1" y="53" fill="#2B53A0" width="43.1" height="34.2"/>
		<path fill="#FFFFFF" d="M65.5,87.5H21.7V52.7h43.7V87.5z M22.4,86.9h42.4V53.4H22.4V86.9z"/>
	</g>
	<g>
		<defs>
			<rect id="SVGID_1_" x="22.4" y="53" width="42.1" height="34.2"/>
		</defs>
		<clipPath id="SVGID_2_">
			<use xlink:href="#SVGID_1_"  overflow="visible"/>
		</clipPath>
		<g clip-path="url(#SVGID_2_)">
			<g>
				<rect x="22.8" y="51.4" fill="#FFFFFF" width="0.3" height="38.3"/>
				<rect x="23.5" y="51.4" fill="#FFFFFF" width="0.3" height="38.3"/>
				<rect x="24.1" y="51.4" fill="#FFFFFF" width="0.3" height="38.3"/>
				<rect x="24.8" y="51.4" fill="#FFFFFF" width="0.3" height="38.3"/>
				<rect x="25.4" y="51.4" fill="#FFFFFF" width="0.3" height="38.3"/>
				<rect x="26.1" y="51.4" fill="#FFFFFF" width="0.3" height="38.3"/>
				<rect x="26.7" y="51.4" fill="#FFFFFF" width="0.3" height="38.3"/>
				<rect x="27.4" y="51.4" fill="#FFFFFF" width="0.3" height="38.3"/>
				<rect x="28" y="51.4" fill="#FFFFFF" width="0.3" height="38.3"/>
				<rect x="28.7" y="51.4" fill="#FFFFFF" width="0.3" height="38.3"/>
				<rect x="29.3" y="51.4" fill="#FFFFFF" width="0.3" height="38.3"/>
				<rect x="30" y="51.4" fill="#FFFFFF" width="0.3" height="38.3"/>
				<rect x="30.6" y="51.4" fill="#FFFFFF" width="0.3" height="38.3"/>
				<rect x="31.2" y="51.4" fill="#FFFFFF" width="0.3" height="38.3"/>
				<rect x="31.9" y="51.4" fill="#FFFFFF" width="0.3" height="38.3"/>
				<rect x="32.5" y="51.4" fill="#FFFFFF" width="0.3" height="38.3"/>
				<rect x="33.2" y="51.4" fill="#FFFFFF" width="0.3" height="38.3"/>
				<rect x="33.8" y="51.4" fill="#FFFFFF" width="0.3" height="38.3"/>
				<rect x="34.5" y="51.4" fill="#FFFFFF" width="0.3" height="38.3"/>
				<rect x="35.1" y="51.4" fill="#FFFFFF" width="0.3" height="38.3"/>
				<rect x="35.8" y="51.4" fill="#FFFFFF" width="0.3" height="38.3"/>
				<rect x="36.4" y="51.4" fill="#FFFFFF" width="0.3" height="38.3"/>
				<rect x="37.1" y="51.4" fill="#FFFFFF" width="0.3" height="38.3"/>
				<rect x="37.7" y="51.4" fill="#FFFFFF" width="0.3" height="38.3"/>
				<rect x="38.3" y="51.4" fill="#FFFFFF" width="0.3" height="38.3"/>
				<rect x="39" y="51.4" fill="#FFFFFF" width="0.3" height="38.3"/>
				<rect x="39.6" y="51.4" fill="#FFFFFF" width="0.3" height="38.3"/>
				<rect x="40.3" y="51.4" fill="#FFFFFF" width="0.3" height="38.3"/>
				<rect x="40.9" y="51.4" fill="#FFFFFF" width="0.3" height="38.3"/>
				<rect x="41.6" y="51.4" fill="#FFFFFF" width="0.3" height="38.3"/>
				<rect x="42.2" y="51.4" fill="#FFFFFF" width="0.3" height="38.3"/>
				<rect x="42.9" y="51.4" fill="#FFFFFF" width="0.3" height="38.3"/>
				<rect x="43.5" y="51.4" fill="#FFFFFF" width="0.3" height="38.3"/>
				<rect x="44.2" y="51.4" fill="#FFFFFF" width="0.3" height="38.3"/>
				<rect x="44.8" y="51.4" fill="#FFFFFF" width="0.3" height="38.3"/>
				<rect x="45.5" y="51.4" fill="#FFFFFF" width="0.3" height="38.3"/>
				<rect x="46.1" y="51.4" fill="#FFFFFF" width="0.3" height="38.3"/>
				<rect x="46.7" y="51.4" fill="#FFFFFF" width="0.3" height="38.3"/>
				<rect x="56.4" y="51.4" fill="#FFFFFF" width="0.3" height="38.3"/>
				<rect x="57.1" y="51.9" fill="#FFFFFF" width="0.3" height="38.3"/>
				<rect x="47.4" y="51.4" fill="#FFFFFF" width="0.3" height="38.3"/>
				<rect x="48" y="51.4" fill="#FFFFFF" width="0.3" height="38.3"/>
				<rect x="48.7" y="51.4" fill="#FFFFFF" width="0.3" height="38.3"/>
				<rect x="49.3" y="51.4" fill="#FFFFFF" width="0.3" height="38.3"/>
				<rect x="50" y="51.4" fill="#FFFFFF" width="0.3" height="38.3"/>
				<rect x="50.6" y="51.4" fill="#FFFFFF" width="0.3" height="38.3"/>
				<rect x="51.3" y="51.4" fill="#FFFFFF" width="0.3" height="38.3"/>
				<rect x="51.9" y="51.4" fill="#FFFFFF" width="0.3" height="38.3"/>
				<rect x="52.6" y="51.4" fill="#FFFFFF" width="0.3" height="38.3"/>
				<rect x="53.2" y="51.4" fill="#FFFFFF" width="0.3" height="38.3"/>
				<rect x="53.8" y="51.4" fill="#FFFFFF" width="0.3" height="38.3"/>
				<rect x="54.5" y="51.4" fill="#FFFFFF" width="0.3" height="38.3"/>
				<rect x="55.1" y="51.4" fill="#FFFFFF" width="0.3" height="38.3"/>
				<rect x="55.8" y="51.4" fill="#FFFFFF" width="0.3" height="38.3"/>
			</g>
			<g>
				<polygon fill="#2B53A0" points="33.4,87.2 33.4,62.6 57.9,82.2 57.9,53 65.7,53 65.7,87.2 				"/>
				<path fill="#FFFFFF" d="M33,87.5V61.9l24.5,19.7V52.6h8.5v34.8h-0.3L33,87.5z M33.7,63.3v23.6l31.7-0.1V53.3h-7.2v29.6
					L33.7,63.3z"/>
			</g>
		</g>
	</g>
</g>
</svg>
