<svg xmlns="http://www.w3.org/2000/svg" width="94" height="92.122" viewBox="0 0 94 92.122">
  <g id="piggy-bank" transform="translate(0 -5.115)">
    <g id="Сгруппировать_90" data-name="Сгруппировать 90" transform="translate(69.991 53.859)">
      <g id="Сгруппировать_89" data-name="Сгруппировать 89">
        <path id="Контур_152" data-name="Контур 152" d="M388.806,270.613a1.368,1.368,0,0,0-1.368,1.368,1.737,1.737,0,0,1-3.474,0,1.368,1.368,0,0,0-2.736,0,4.473,4.473,0,0,0,8.946,0A1.368,1.368,0,0,0,388.806,270.613Z" transform="translate(-381.228 -270.613)" fill="#00549f"/>
      </g>
    </g>
    <g id="Сгруппировать_92" data-name="Сгруппировать 92" transform="translate(0 5.115)">
      <g id="Сгруппировать_91" data-name="Сгруппировать 91">
        <path id="Контур_153" data-name="Контур 153" d="M90.41,54.082l-3.85-1.233A1.611,1.611,0,0,1,85.52,51.8a24.825,24.825,0,0,0-3.64-7.2,26.418,26.418,0,0,0-2.432-2.868,33.932,33.932,0,0,0,.837-7.749c-.057-3.486-.754-5.53-2.129-6.25-.741-.388-3-1.569-15.2,4.017a4.44,4.44,0,0,0-.809.482c-.823-.221-1.664-.426-2.51-.609-.1-.022-.207-.042-.31-.064A18.636,18.636,0,0,0,61,24.627a1.368,1.368,0,0,0-2.733-.122A15.917,15.917,0,0,1,47.857,38.736a39.671,39.671,0,0,0-11.011,0A15.93,15.93,0,1,1,56.591,16.621a1.368,1.368,0,0,0,2.444-1.23A18.673,18.673,0,1,0,32.444,39.615h0q-1.276.332-2.53.748a1.368,1.368,0,0,0,.867,2.6,36.713,36.713,0,0,1,23.139,0,1.368,1.368,0,0,0,.867-2.6q-1.252-.419-2.53-.748h0a18.654,18.654,0,0,0,5.679-5.552c.377.073.751.15,1.12.23q.737.16,1.465.341c-.015.059-.031.119-.044.179a16.315,16.315,0,0,0,.129,8.322,9.9,9.9,0,0,0,3.628,5.1,11.508,11.508,0,0,0,6.733,2.137,9.027,9.027,0,0,0,4.364-1.009C76.62,48.635,77.7,47.1,78.551,44.8q.591.69,1.12,1.414a22.089,22.089,0,0,1,3.24,6.407,4.351,4.351,0,0,0,2.815,2.838l3.85,1.233A2.423,2.423,0,0,1,91.264,59v6.384A2.423,2.423,0,0,1,89.575,67.7l-6.2,1.987a4.227,4.227,0,0,0-2.365,1.921,27.266,27.266,0,0,1-11.39,10.36,2.143,2.143,0,0,0-1.125,1.511L66.506,94a.615.615,0,0,1-.6.5h-6.46a.615.615,0,0,1-.6-.5l-1.1-5.814a2.15,2.15,0,0,0-2.444-1.729,57.186,57.186,0,0,1-8.522.634,54.54,54.54,0,0,1-6.27-.354,2.167,2.167,0,0,0-2.371,1.739L37.085,94a.615.615,0,0,1-.6.5h-6.46a.616.616,0,0,1-.6-.5L27.5,84.06a2.148,2.148,0,0,0-1.1-1.494c-8.729-4.66-13.343-12.445-13.343-22.513a26.3,26.3,0,0,1,3.308-13.37A23.868,23.868,0,0,1,25.256,38a1.368,1.368,0,0,0-1.37-2.369A26.039,26.039,0,0,0,10.673,55.085h0c-.132-.012-.263-.023-.395-.037a6.811,6.811,0,0,0-.5-2.729A5.6,5.6,0,0,0,5.624,48.69a3.781,3.781,0,0,0-3.56,1.586C.758,52,.971,53.365,1.379,54.207c.689,1.42,2.46,2.424,5.4,3.055q-.121.181-.267.365a6.713,6.713,0,0,1-5.111,2.7A1.436,1.436,0,0,0,0,61.76v.007A1.433,1.433,0,0,0,1.373,63.2q.147.007.308.007c1.681,0,4.379-.62,6.971-3.87a7.8,7.8,0,0,0,1-1.613q.387.044.744.076h0c-.047.741-.073,1.494-.073,2.259a28.192,28.192,0,0,0,4.036,15.1,27.657,27.657,0,0,0,10.512,9.7l1.86,9.66a3.353,3.353,0,0,0,3.292,2.727h6.46a3.353,3.353,0,0,0,3.292-2.727l.946-5a57.654,57.654,0,0,0,6.052.313,60.1,60.1,0,0,0,8.382-.584l1,5.266a3.353,3.353,0,0,0,3.292,2.727H65.9a3.354,3.354,0,0,0,3.292-2.728l1.935-10.243A29.826,29.826,0,0,0,83.375,72.979a1.5,1.5,0,0,1,.832-.685l6.2-1.987A5.151,5.151,0,0,0,94,65.387V59A5.15,5.15,0,0,0,90.41,54.082ZM77.344,37.824c-.527,4.5-1.939,8.355-3.358,9.158-1.613.914-5.337,1.09-8.133-.955s-3.731-5.73-2.695-10.65h0a1.651,1.651,0,0,1,.939-1.143c6.849-3.135,10.8-4.16,12.264-4.16a1.431,1.431,0,0,1,.5.066C77.3,30.61,77.876,33.279,77.344,37.824ZM3.841,53.012c-.142-.292.193-.805.4-1.085a1.091,1.091,0,0,1,.879-.534,1.027,1.027,0,0,1,.138.01,2.982,2.982,0,0,1,1.977,1.937,4.154,4.154,0,0,1,.286,1.29C5.632,54.237,4.16,53.671,3.841,53.012Z" transform="translate(0 -5.115)" fill="#00549f"/>
      </g>
    </g>
    <g id="Сгруппировать_94" data-name="Сгруппировать 94" transform="translate(37.241 13.899)">
      <g id="Сгруппировать_93" data-name="Сгруппировать 93">
        <path id="Контур_154" data-name="Контур 154" d="M209.284,61.279v-4.9c1.688.121,2.315.892,2.894.892.724,0,1.061-.916,1.061-1.375,0-1.182-2.315-1.688-3.955-1.736v-.651c0-.289-.362-.555-.724-.555a.636.636,0,0,0-.7.555v.7c-2.291.241-4.582,1.447-4.582,4.486,0,3.087,2.412,3.955,4.582,4.727v5.667c-2.46-.193-3.111-1.881-3.907-1.881-.6,0-1.109.8-1.109,1.375,0,1.182,2.026,2.8,5.016,2.846h0v.748a.636.636,0,0,0,.7.555c.362,0,.724-.265.724-.555v-.82a4.672,4.672,0,0,0,4.389-4.968C213.673,63.112,211.382,62.051,209.284,61.279Zm-1.278-.458c-1.278-.482-2.315-.989-2.315-2.363,0-1.254.965-1.857,2.315-2.026Zm1.133,8.224V63.956c1.182.506,2.122,1.182,2.122,2.7A2.294,2.294,0,0,1,209.139,69.045Z" transform="translate(-202.845 -52.959)" fill="#00549f"/>
      </g>
    </g>
  </g>
</svg>
