<svg xmlns="http://www.w3.org/2000/svg" width="91.893" height="92" viewBox="0 0 91.893 92">
  <g id="price-tag" transform="translate(-0.299)">
    <g id="Сгруппировать_99" data-name="Сгруппировать 99" transform="translate(0.299)">
      <g id="Сгруппировать_98" data-name="Сгруппировать 98">
        <path id="Контур_155" data-name="Контур 155" d="M298.441,311.142a1.531,1.531,0,0,0-2.1.548l-17.582,29.987a4.591,4.591,0,0,1-6.218,1.726l-3.425-2.219a1.534,1.534,0,1,0-1.669,2.574l3.492,2.261a7.671,7.671,0,0,0,10.47-2.8l17.576-29.98A1.533,1.533,0,0,0,298.441,311.142Z" transform="translate(-218.857 -255.043)" fill="#00549f"/>
        <path id="Контур_156" data-name="Контур 156" d="M84.523,0H59.982A15.467,15.467,0,0,0,48.161,5.051,1.534,1.534,0,0,0,50.33,7.22c2.988-2.988,5.695-4.152,9.652-4.152H84.523a4.607,4.607,0,0,1,4.6,4.6V32.21c0,3.959-1.164,6.664-4.153,9.652L39.42,87.477a4.713,4.713,0,0,1-6.506,0l-28.2-28.2a4.6,4.6,0,0,1,0-6.506L45.883,11.66c.633.161,1.268.322,1.926.5A116.849,116.849,0,0,1,62.643,17.1a9.189,9.189,0,1,0,8.075-4.828,1.534,1.534,0,0,0,0,3.067,6.148,6.148,0,1,1-5.276,3.014,19.707,19.707,0,0,1,4.974,3.028,7.4,7.4,0,0,1-1.37.225,1.535,1.535,0,0,0,.134,3.063c.044,0,.09,0,.136-.006.943-.084,3.813-.337,4.365-2.394C75.193,16.624,53.056,10.388,48.6,9.195A113.045,113.045,0,0,0,30.181,5.679c-6.229-.544-9.263.164-9.833,2.3-.273,1.023-1,3.739,11.434,8.643a1.533,1.533,0,1,0,1.124-2.853c-6.008-2.37-8.5-4.106-9.295-4.923,1.891-.555,8.359-.394,18.775,1.974L2.546,50.6a7.667,7.667,0,0,0,0,10.845l28.2,28.2a7.667,7.667,0,0,0,10.844,0L87.141,44.031A15.462,15.462,0,0,0,92.192,32.21V7.669A7.677,7.677,0,0,0,84.523,0Z" transform="translate(-0.299)" fill="#00549f"/>
        <path id="Контур_157" data-name="Контур 157" d="M169.454,222.314a1.532,1.532,0,0,0-2.169,0l-.828.828a7.657,7.657,0,0,0-11.892,6.391,10.127,10.127,0,0,0,1.765,5.413,9.107,9.107,0,0,1,1.3,3.79,4.6,4.6,0,1,1-8.4-2.6,1.534,1.534,0,1,0-2.531-1.733,7.641,7.641,0,0,0-.061,8.551l-.828.828a1.534,1.534,0,1,0,2.169,2.169l.828-.828a7.657,7.657,0,0,0,11.892-6.391,11.794,11.794,0,0,0-1.765-5.413,6.987,6.987,0,0,1-1.3-3.79,4.589,4.589,0,0,1,7.769-3.321c.026.028.035.064.061.092s.064.035.092.061a4.582,4.582,0,0,1-.071,6.426,1.534,1.534,0,1,0,2.167,2.17,7.649,7.649,0,0,0,.974-9.652l.828-.828A1.532,1.532,0,0,0,169.454,222.314Z" transform="translate(-119.288 -181.986)" fill="#00549f"/>
      </g>
    </g>
  </g>
</svg>
