<svg xmlns="http://www.w3.org/2000/svg" width="23.91" height="13.643" viewBox="0 0 23.91 13.643"><defs><style>.a{fill:#fff;}</style></defs><g transform="translate(0 0)"><path class="a" d="M23.7,122.093a10.66,10.66,0,0,0-2.375-2.747c-2-1.859-1.734-1.557.679-4.772,1.469-1.958,2.056-3.153,1.873-3.665-.175-.487-1.255-.359-1.255-.359l-3.593.021a.821.821,0,0,0-.465.082,1.012,1.012,0,0,0-.317.386,20.812,20.812,0,0,1-1.329,2.8c-1.6,2.719-2.242,2.862-2.5,2.693-.608-.393-.456-1.581-.456-2.424,0-2.635.4-3.733-.779-4.017a6.167,6.167,0,0,0-1.678-.167,7.762,7.762,0,0,0-2.983.3c-.409.2-.725.647-.532.673a1.611,1.611,0,0,1,1.061.534,3.462,3.462,0,0,1,.356,1.628s.212,3.1-.495,3.487c-.486.265-1.151-.275-2.578-2.742a23,23,0,0,1-1.284-2.66,1.061,1.061,0,0,0-.3-.4,1.49,1.49,0,0,0-.553-.223l-3.416.021s-.513.015-.7.238c-.167.2-.013.608-.013.608s2.675,6.258,5.7,9.412a8.207,8.207,0,0,0,5.932,2.7h1.429a1.2,1.2,0,0,0,.652-.285,1.041,1.041,0,0,0,.2-.628s-.028-1.917.862-2.2,2,1.853,3.2,2.674a2.262,2.262,0,0,0,1.589.484l3.194-.045S24.489,123.406,23.7,122.093Z" transform="translate(0 -109.924)"/></g></svg>